<svg width="83" height="192" viewBox="0 0 83 192" fill="none" xmlns="http://www.w3.org/2000/svg">
<g clip-path="url(#clip0_10_1561)">
<path d="M24.541 58.4966C24.541 59.6205 23.595 60.5839 22.3707 60.5839C21.1465 60.5839 20.2004 59.6741 20.2004 58.4966C20.2004 57.3192 21.1465 56.4094 22.3707 56.4094C23.595 56.4094 24.541 57.3192 24.541 58.4966Z" fill="white"/>
<path d="M24.541 49.0774C24.541 50.2013 23.595 51.1646 22.3707 51.1646C21.1465 51.1646 20.2004 50.2548 20.2004 49.0774C20.2004 47.9535 21.1465 46.9901 22.3707 46.9901C23.595 46.9901 24.541 47.9535 24.541 49.0774Z" fill="white"/>
<path d="M24.541 39.7116C24.541 40.8355 23.595 41.7988 22.3707 41.7988C21.1465 41.7988 20.2004 40.889 20.2004 39.7116C20.2004 38.5877 21.1465 37.6244 22.3707 37.6244C23.595 37.6244 24.541 38.5342 24.541 39.7116Z" fill="white"/>
<path d="M24.541 30.2923C24.541 31.4162 23.595 32.3796 22.3707 32.3796C21.1465 32.3796 20.2004 31.4697 20.2004 30.2923C20.2004 29.1684 21.1465 28.2051 22.3707 28.2051C23.595 28.2051 24.541 29.1684 24.541 30.2923Z" fill="white"/>
<path d="M24.541 20.9266C24.541 22.0505 23.595 23.0138 22.3707 23.0138C21.1465 23.0138 20.2561 22.0505 20.2561 20.9266C20.2561 19.8027 21.2021 18.8394 22.4264 18.8394C23.6506 18.8394 24.541 19.7492 24.541 20.9266Z" fill="white"/>
<path d="M24.541 11.5073C24.541 12.6312 23.595 13.5945 22.3707 13.5945C21.1465 13.5945 20.2004 12.6847 20.2004 11.5073C20.2004 10.3299 21.2021 9.4736 22.3707 9.4736C23.5393 9.4736 24.541 10.3834 24.541 11.5073Z" fill="white"/>
<path d="M24.541 2.14155C24.541 3.26544 23.595 4.17525 22.3707 4.17525C21.1465 4.17525 20.2561 3.26544 20.2561 2.14155C20.2561 0.964138 21.2021 0.0543217 22.3707 0.0543216C23.5393 0.0543214 24.541 0.964138 24.541 2.14155Z" fill="white"/>
<path d="M10.1282 58.4966C10.1282 59.6494 11.0998 60.5839 12.2985 60.5839C13.4971 60.5839 14.4688 59.6494 14.4688 58.4966C14.4688 57.3439 13.4971 56.4094 12.2985 56.4094C11.0998 56.4094 10.1282 57.3439 10.1282 58.4966Z" fill="white"/>
<path d="M10.1282 49.0774C10.1282 50.2301 11.0998 51.1646 12.2985 51.1646C13.4971 51.1646 14.4688 50.2301 14.4688 49.0774C14.4688 47.9246 13.4971 46.9901 12.2985 46.9901C11.0998 46.9901 10.1282 47.9246 10.1282 49.0774Z" fill="white"/>
<path d="M10.1282 39.7116C10.1282 38.5877 11.0742 37.6244 12.2985 37.6244C13.5227 37.6244 14.4688 38.5342 14.4688 39.7116C14.4688 40.8355 13.5227 41.7988 12.2985 41.7988C11.0742 41.7988 10.1282 40.8355 10.1282 39.7116Z" fill="white"/>
<path d="M10.1282 30.2923C10.1282 31.4451 11.0998 32.3796 12.2985 32.3796C13.4971 32.3796 14.4688 31.4451 14.4688 30.2923C14.4688 29.1396 13.4971 28.2051 12.2985 28.2051C11.0998 28.2051 10.1282 29.1396 10.1282 30.2923Z" fill="white"/>
<path d="M10.1282 20.9266C10.1282 19.8027 11.0742 18.8394 12.2985 18.8394C13.5227 18.8394 14.4688 19.7492 14.4688 20.9266C14.4688 22.0505 13.5227 23.0138 12.2985 23.0138C11.0742 23.0138 10.1282 22.0505 10.1282 20.9266Z" fill="white"/>
<path d="M10.1282 11.5073C10.1282 12.66 11.0998 13.5945 12.2985 13.5945C13.4971 13.5945 14.4688 12.66 14.4688 11.5073C14.4688 10.3546 13.4971 9.42007 12.2985 9.42007C11.0998 9.42007 10.1282 10.3546 10.1282 11.5073Z" fill="white"/>
<path d="M10.1282 2.14155C10.1282 0.964138 11.0742 0.0543217 12.2985 0.0543216C13.5227 0.0543214 14.4688 0.964138 14.4688 2.14155C14.4688 3.26544 13.5227 4.22877 12.2985 4.22877C11.0742 4.22877 10.1282 3.26544 10.1282 2.14155Z" fill="white"/>
<path d="M0.000235836 58.4966C0.000235686 57.3728 0.946259 56.4094 2.17053 56.4094C3.33915 56.4094 4.34082 57.3192 4.34082 58.4966C4.34082 59.6741 3.3948 60.5839 2.17053 60.5839C0.94626 60.5304 0.000235985 59.6205 0.000235836 58.4966Z" fill="white"/>
<path d="M0.000231067 49.0774C0.000230918 47.9535 0.946255 46.9901 2.17052 46.9901C3.33914 46.9901 4.34082 47.9 4.34082 49.0774C4.34082 50.2013 3.39479 51.1646 2.17053 51.1646C0.946256 51.1646 0.000231217 50.2013 0.000231067 49.0774Z" fill="white"/>
<path d="M0.000231067 39.7116C0.000230918 38.5877 0.946255 37.6244 2.17052 37.6244C3.33914 37.6244 4.34082 38.5342 4.34082 39.7116C4.34082 40.8355 3.39479 41.7988 2.17053 41.7988C0.946256 41.7453 0.000231217 40.8355 0.000231067 39.7116Z" fill="white"/>
<path d="M0.000232498 30.2923C0.000232348 29.1684 0.946257 28.2051 2.17053 28.2051C3.33915 28.2051 4.34082 29.1149 4.34082 30.2923C4.34082 31.4162 3.39479 32.3796 2.17053 32.3796C0.946257 32.3796 0.000232648 31.4162 0.000232498 30.2923Z" fill="white"/>
<path d="M0.000234405 20.9266C0.000234255 19.8027 0.946258 18.8394 2.17053 18.8394C3.33915 18.8394 4.34082 19.7492 4.34082 20.9266C4.34082 22.0505 3.39479 23.0138 2.17053 23.0138C0.946259 22.9603 0.000234555 22.0505 0.000234405 20.9266Z" fill="white"/>
<path d="M0.000237743 11.5073C0.000237593 10.3834 0.946261 9.42007 2.17053 9.42007C3.33915 9.42007 4.34082 10.3299 4.34082 11.5073C4.34082 12.6847 3.3948 13.5945 2.17053 13.5945C0.946261 13.5945 0.000237893 12.6312 0.000237743 11.5073Z" fill="white"/>
<path d="M0.000237743 2.14155C0.000237593 1.01766 0.946261 0.0543217 2.17053 0.0543216C3.33915 0.0543214 4.34082 0.964138 4.34082 2.14155C4.34082 3.26544 3.3948 4.22877 2.17053 4.22877C0.946261 4.17525 0.000237893 3.26544 0.000237743 2.14155Z" fill="white"/>
</g>
<g clip-path="url(#clip1_10_1561)">
<path d="M24.541 124.231C24.541 125.355 23.595 126.319 22.3707 126.319C21.1465 126.319 20.2004 125.409 20.2004 124.231C20.2004 123.054 21.1465 122.144 22.3707 122.144C23.595 122.144 24.541 123.054 24.541 124.231Z" fill="white"/>
<path d="M24.541 114.812C24.541 115.936 23.595 116.899 22.3707 116.899C21.1465 116.899 20.2004 115.99 20.2004 114.812C20.2004 113.688 21.1465 112.725 22.3707 112.725C23.595 112.725 24.541 113.688 24.541 114.812Z" fill="white"/>
<path d="M24.541 105.446C24.541 106.57 23.595 107.534 22.3707 107.534C21.1465 107.534 20.2004 106.624 20.2004 105.446C20.2004 104.323 21.1465 103.359 22.3707 103.359C23.595 103.359 24.541 104.269 24.541 105.446Z" fill="white"/>
<path d="M24.541 96.0272C24.541 97.151 23.595 98.1144 22.3707 98.1144C21.1465 98.1144 20.2004 97.2046 20.2004 96.0272C20.2004 94.9033 21.1465 93.9399 22.3707 93.9399C23.595 93.9399 24.541 94.9033 24.541 96.0272Z" fill="white"/>
<path d="M24.541 86.6614C24.541 87.7853 23.595 88.7486 22.3707 88.7486C21.1465 88.7486 20.2561 87.7853 20.2561 86.6614C20.2561 85.5375 21.2021 84.5742 22.4264 84.5742C23.6506 84.5742 24.541 85.484 24.541 86.6614Z" fill="white"/>
<path d="M24.541 77.2421C24.541 78.366 23.595 79.3294 22.3707 79.3294C21.1465 79.3294 20.2004 78.4195 20.2004 77.2421C20.2004 76.0647 21.2021 75.2084 22.3707 75.2084C23.5393 75.2084 24.541 76.1182 24.541 77.2421Z" fill="white"/>
<path d="M24.541 67.8764C24.541 69.0003 23.595 69.9101 22.3707 69.9101C21.1465 69.9101 20.2561 69.0003 20.2561 67.8764C20.2561 66.699 21.2021 65.7891 22.3707 65.7891C23.5393 65.7891 24.541 66.699 24.541 67.8764Z" fill="white"/>
<path d="M10.1282 124.231C10.1282 125.384 11.0998 126.319 12.2985 126.319C13.4971 126.319 14.4688 125.384 14.4688 124.231C14.4688 123.079 13.4971 122.144 12.2985 122.144C11.0998 122.144 10.1282 123.079 10.1282 124.231Z" fill="white"/>
<path d="M10.1282 114.812C10.1282 115.965 11.0998 116.899 12.2985 116.899C13.4971 116.899 14.4688 115.965 14.4688 114.812C14.4688 113.659 13.4971 112.725 12.2985 112.725C11.0998 112.725 10.1282 113.659 10.1282 114.812Z" fill="white"/>
<path d="M10.1282 105.446C10.1282 104.323 11.0742 103.359 12.2985 103.359C13.5227 103.359 14.4688 104.269 14.4688 105.446C14.4688 106.57 13.5227 107.534 12.2985 107.534C11.0742 107.534 10.1282 106.57 10.1282 105.446Z" fill="white"/>
<path d="M10.1282 96.0272C10.1282 97.1799 11.0998 98.1144 12.2985 98.1144C13.4971 98.1144 14.4688 97.1799 14.4688 96.0272C14.4688 94.8744 13.4971 93.9399 12.2985 93.9399C11.0998 93.9399 10.1282 94.8744 10.1282 96.0272Z" fill="white"/>
<path d="M10.1282 86.6614C10.1282 85.5375 11.0742 84.5742 12.2985 84.5742C13.5227 84.5742 14.4688 85.484 14.4688 86.6614C14.4688 87.7853 13.5227 88.7486 12.2985 88.7486C11.0742 88.7486 10.1282 87.7853 10.1282 86.6614Z" fill="white"/>
<path d="M10.1282 77.2421C10.1282 78.3949 11.0998 79.3293 12.2985 79.3293C13.4971 79.3293 14.4688 78.3949 14.4688 77.2421C14.4688 76.0894 13.4971 75.1549 12.2985 75.1549C11.0998 75.1549 10.1282 76.0894 10.1282 77.2421Z" fill="white"/>
<path d="M10.1282 67.8764C10.1282 66.699 11.0742 65.7891 12.2985 65.7891C13.5227 65.7891 14.4688 66.699 14.4688 67.8764C14.4688 69.0003 13.5227 69.9636 12.2985 69.9636C11.0742 69.9636 10.1282 69.0003 10.1282 67.8764Z" fill="white"/>
<path d="M0.000235836 124.231C0.000235686 123.108 0.946259 122.144 2.17053 122.144C3.33915 122.144 4.34082 123.054 4.34082 124.231C4.34082 125.409 3.3948 126.319 2.17053 126.319C0.94626 126.265 0.000235985 125.355 0.000235836 124.231Z" fill="white"/>
<path d="M0.000231067 114.812C0.000230918 113.688 0.946255 112.725 2.17052 112.725C3.33914 112.725 4.34082 113.635 4.34082 114.812C4.34082 115.936 3.39479 116.899 2.17053 116.899C0.946256 116.899 0.000231217 115.936 0.000231067 114.812Z" fill="white"/>
<path d="M0.000231067 105.446C0.000230918 104.323 0.946255 103.359 2.17052 103.359C3.33914 103.359 4.34082 104.269 4.34082 105.446C4.34082 106.57 3.39479 107.534 2.17053 107.534C0.946256 107.48 0.000231217 106.57 0.000231067 105.446Z" fill="white"/>
<path d="M0.000232498 96.0272C0.000232348 94.9033 0.946257 93.9399 2.17053 93.9399C3.33915 93.9399 4.34082 94.8497 4.34082 96.0272C4.34082 97.151 3.39479 98.1144 2.17053 98.1144C0.946257 98.1144 0.000232648 97.151 0.000232498 96.0272Z" fill="white"/>
<path d="M0.000234405 86.6614C0.000234255 85.5375 0.946258 84.5742 2.17053 84.5742C3.33915 84.5742 4.34082 85.484 4.34082 86.6614C4.34082 87.7853 3.39479 88.7486 2.17053 88.7486C0.946259 88.6951 0.000234555 87.7853 0.000234405 86.6614Z" fill="white"/>
<path d="M0.000237743 77.2421C0.000237593 76.1182 0.946261 75.1549 2.17053 75.1549C3.33915 75.1549 4.34082 76.0647 4.34082 77.2421C4.34082 78.4195 3.3948 79.3293 2.17053 79.3293C0.946261 79.3293 0.000237893 78.366 0.000237743 77.2421Z" fill="white"/>
<path d="M0.000237743 67.8764C0.000237593 66.7525 0.946261 65.7891 2.17053 65.7891C3.33915 65.7891 4.34082 66.699 4.34082 67.8764C4.34082 69.0003 3.3948 69.9636 2.17053 69.9636C0.946261 69.9101 0.000237893 69.0003 0.000237743 67.8764Z" fill="white"/>
</g>
<g clip-path="url(#clip2_10_1561)">
<path d="M24.541 189.966C24.541 191.09 23.595 192.054 22.3707 192.054C21.1465 192.054 20.2004 191.144 20.2004 189.966C20.2004 188.789 21.1465 187.879 22.3707 187.879C23.595 187.879 24.541 188.789 24.541 189.966Z" fill="white"/>
<path d="M24.541 180.547C24.541 181.671 23.595 182.634 22.3707 182.634C21.1465 182.634 20.2004 181.724 20.2004 180.547C20.2004 179.423 21.1465 178.46 22.3707 178.46C23.595 178.46 24.541 179.423 24.541 180.547Z" fill="white"/>
<path d="M24.541 171.181C24.541 172.305 23.595 173.268 22.3707 173.268C21.1465 173.268 20.2004 172.359 20.2004 171.181C20.2004 170.057 21.1465 169.094 22.3707 169.094C23.595 169.094 24.541 170.004 24.541 171.181Z" fill="white"/>
<path d="M24.541 161.762C24.541 162.886 23.595 163.849 22.3707 163.849C21.1465 163.849 20.2004 162.939 20.2004 161.762C20.2004 160.638 21.1465 159.675 22.3707 159.675C23.595 159.675 24.541 160.638 24.541 161.762Z" fill="white"/>
<path d="M24.541 152.396C24.541 153.52 23.595 154.483 22.3707 154.483C21.1465 154.483 20.2561 153.52 20.2561 152.396C20.2561 151.272 21.2021 150.309 22.4264 150.309C23.6506 150.309 24.541 151.219 24.541 152.396Z" fill="white"/>
<path d="M24.541 142.977C24.541 144.101 23.595 145.064 22.3707 145.064C21.1465 145.064 20.2004 144.154 20.2004 142.977C20.2004 141.8 21.2021 140.943 22.3707 140.943C23.5393 140.943 24.541 141.853 24.541 142.977Z" fill="white"/>
<path d="M24.541 133.611C24.541 134.735 23.595 135.645 22.3707 135.645C21.1465 135.645 20.2561 134.735 20.2561 133.611C20.2561 132.434 21.2021 131.524 22.3707 131.524C23.5393 131.524 24.541 132.434 24.541 133.611Z" fill="white"/>
<path d="M10.1282 189.966C10.1282 191.119 11.0998 192.054 12.2985 192.054C13.4971 192.054 14.4688 191.119 14.4688 189.966C14.4688 188.814 13.4971 187.879 12.2985 187.879C11.0998 187.879 10.1282 188.814 10.1282 189.966Z" fill="white"/>
<path d="M10.1282 180.547C10.1282 181.7 11.0998 182.634 12.2985 182.634C13.4971 182.634 14.4688 181.7 14.4688 180.547C14.4688 179.394 13.4971 178.46 12.2985 178.46C11.0998 178.46 10.1282 179.394 10.1282 180.547Z" fill="white"/>
<path d="M10.1282 171.181C10.1282 170.057 11.0742 169.094 12.2985 169.094C13.5227 169.094 14.4688 170.004 14.4688 171.181C14.4688 172.305 13.5227 173.268 12.2985 173.268C11.0742 173.268 10.1282 172.305 10.1282 171.181Z" fill="white"/>
<path d="M10.1282 161.762C10.1282 162.915 11.0998 163.849 12.2985 163.849C13.4971 163.849 14.4688 162.915 14.4688 161.762C14.4688 160.609 13.4971 159.675 12.2985 159.675C11.0998 159.675 10.1282 160.609 10.1282 161.762Z" fill="white"/>
<path d="M10.1282 152.396C10.1282 151.272 11.0742 150.309 12.2985 150.309C13.5227 150.309 14.4688 151.219 14.4688 152.396C14.4688 153.52 13.5227 154.483 12.2985 154.483C11.0742 154.483 10.1282 153.52 10.1282 152.396Z" fill="white"/>
<path d="M10.1282 142.977C10.1282 144.13 11.0998 145.064 12.2985 145.064C13.4971 145.064 14.4688 144.13 14.4688 142.977C14.4688 141.824 13.4971 140.89 12.2985 140.89C11.0998 140.89 10.1282 141.824 10.1282 142.977Z" fill="white"/>
<path d="M10.1282 133.611C10.1282 132.434 11.0742 131.524 12.2985 131.524C13.5227 131.524 14.4688 132.434 14.4688 133.611C14.4688 134.735 13.5227 135.698 12.2985 135.698C11.0742 135.698 10.1282 134.735 10.1282 133.611Z" fill="white"/>
<path d="M0.000235836 189.966C0.000235686 188.842 0.946259 187.879 2.17053 187.879C3.33915 187.879 4.34082 188.789 4.34082 189.966C4.34082 191.144 3.3948 192.054 2.17053 192.054C0.94626 192 0.000235985 191.09 0.000235836 189.966Z" fill="white"/>
<path d="M0.000231067 180.547C0.000230918 179.423 0.946255 178.46 2.17052 178.46C3.33914 178.46 4.34082 179.37 4.34082 180.547C4.34082 181.671 3.39479 182.634 2.17053 182.634C0.946256 182.634 0.000231217 181.671 0.000231067 180.547Z" fill="white"/>
<path d="M0.000231067 171.181C0.000230918 170.057 0.946255 169.094 2.17052 169.094C3.33914 169.094 4.34082 170.004 4.34082 171.181C4.34082 172.305 3.39479 173.268 2.17053 173.268C0.946256 173.215 0.000231217 172.305 0.000231067 171.181Z" fill="white"/>
<path d="M0.000232498 161.762C0.000232348 160.638 0.946257 159.675 2.17053 159.675C3.33915 159.675 4.34082 160.585 4.34082 161.762C4.34082 162.886 3.39479 163.849 2.17053 163.849C0.946257 163.849 0.000232648 162.886 0.000232498 161.762Z" fill="white"/>
<path d="M0.000234405 152.396C0.000234255 151.272 0.946258 150.309 2.17053 150.309C3.33915 150.309 4.34082 151.219 4.34082 152.396C4.34082 153.52 3.39479 154.483 2.17053 154.483C0.946259 154.43 0.000234555 153.52 0.000234405 152.396Z" fill="white"/>
<path d="M0.000237743 142.977C0.000237593 141.853 0.946261 140.89 2.17053 140.89C3.33915 140.89 4.34082 141.8 4.34082 142.977C4.34082 144.154 3.3948 145.064 2.17053 145.064C0.946261 145.064 0.000237893 144.101 0.000237743 142.977Z" fill="white"/>
<path d="M0.000237743 133.611C0.000237593 132.487 0.946261 131.524 2.17053 131.524C3.33915 131.524 4.34082 132.434 4.34082 133.611C4.34082 134.735 3.3948 135.698 2.17053 135.698C0.946261 135.645 0.000237893 134.735 0.000237743 133.611Z" fill="white"/>
</g>
<g clip-path="url(#clip3_10_1561)">
<path d="M53.4644 58.4423C53.4644 59.5662 52.5183 60.5295 51.2941 60.5295C50.0698 60.5295 49.1238 59.6197 49.1238 58.4423C49.1238 57.2649 50.0698 56.3551 51.2941 56.3551C52.5183 56.3551 53.4644 57.2649 53.4644 58.4423Z" fill="white"/>
<path d="M53.4644 49.023C53.4644 50.1469 52.5183 51.1102 51.2941 51.1102C50.0698 51.1102 49.1238 50.2004 49.1238 49.023C49.1238 47.8991 50.0698 46.9358 51.2941 46.9358C52.5183 46.9358 53.4644 47.8991 53.4644 49.023Z" fill="white"/>
<path d="M53.4644 39.6573C53.4644 40.7812 52.5183 41.7445 51.2941 41.7445C50.0698 41.7445 49.1238 40.8347 49.1238 39.6573C49.1238 38.5334 50.0698 37.57 51.2941 37.57C52.5183 37.57 53.4644 38.4799 53.4644 39.6573Z" fill="white"/>
<path d="M53.4644 30.238C53.4644 31.3619 52.5183 32.3252 51.2941 32.3252C50.0698 32.3252 49.1238 31.4154 49.1238 30.238C49.1238 29.1141 50.0698 28.1508 51.2941 28.1508C52.5183 28.1508 53.4644 29.1141 53.4644 30.238Z" fill="white"/>
<path d="M53.4644 20.8722C53.4644 21.9961 52.5183 22.9595 51.2941 22.9595C50.0698 22.9595 49.1794 21.9961 49.1794 20.8722C49.1794 19.7483 50.1254 18.785 51.3497 18.785C52.574 18.785 53.4644 19.6948 53.4644 20.8722Z" fill="white"/>
<path d="M53.4644 11.453C53.4644 12.5768 52.5183 13.5402 51.2941 13.5402C50.0698 13.5402 49.1238 12.6304 49.1238 11.453C49.1238 10.2755 50.1254 9.41925 51.2941 9.41925C52.4627 9.41925 53.4644 10.3291 53.4644 11.453Z" fill="white"/>
<path d="M53.4644 2.0872C53.4644 3.21109 52.5183 4.1209 51.2941 4.1209C50.0698 4.1209 49.1794 3.21109 49.1794 2.0872C49.1794 0.909786 50.1254 -3.00867e-05 51.2941 -3.02375e-05C52.4627 -3.03883e-05 53.4644 0.909786 53.4644 2.0872Z" fill="white"/>
<path d="M39.0515 58.4423C39.0515 59.595 40.0232 60.5295 41.2218 60.5295C42.4204 60.5295 43.3921 59.595 43.3921 58.4423C43.3921 57.2896 42.4204 56.3551 41.2218 56.3551C40.0232 56.3551 39.0515 57.2896 39.0515 58.4423Z" fill="white"/>
<path d="M39.0515 49.023C39.0515 50.1758 40.0232 51.1102 41.2218 51.1102C42.4204 51.1102 43.3921 50.1758 43.3921 49.023C43.3921 47.8703 42.4204 46.9358 41.2218 46.9358C40.0232 46.9358 39.0515 47.8703 39.0515 49.023Z" fill="white"/>
<path d="M39.0515 39.6573C39.0515 38.5334 39.9975 37.57 41.2218 37.57C42.4461 37.57 43.3921 38.4799 43.3921 39.6573C43.3921 40.7812 42.4461 41.7445 41.2218 41.7445C39.9975 41.7445 39.0515 40.7812 39.0515 39.6573Z" fill="white"/>
<path d="M39.0515 30.238C39.0515 31.3907 40.0232 32.3252 41.2218 32.3252C42.4204 32.3252 43.3921 31.3907 43.3921 30.238C43.3921 29.0852 42.4204 28.1508 41.2218 28.1508C40.0232 28.1508 39.0515 29.0852 39.0515 30.238Z" fill="white"/>
<path d="M39.0515 20.8722C39.0515 19.7483 39.9975 18.785 41.2218 18.785C42.4461 18.785 43.3921 19.6948 43.3921 20.8722C43.3921 21.9961 42.4461 22.9595 41.2218 22.9595C39.9975 22.9595 39.0515 21.9961 39.0515 20.8722Z" fill="white"/>
<path d="M39.0515 11.4529C39.0515 12.6057 40.0232 13.5402 41.2218 13.5402C42.4204 13.5402 43.3921 12.6057 43.3921 11.4529C43.3921 10.3002 42.4204 9.36572 41.2218 9.36572C40.0232 9.36572 39.0515 10.3002 39.0515 11.4529Z" fill="white"/>
<path d="M39.0515 2.0872C39.0515 0.909786 39.9975 -3.00795e-05 41.2218 -3.02375e-05C42.4461 -3.03955e-05 43.3921 0.909786 43.3921 2.0872C43.3921 3.21109 42.4461 4.17442 41.2218 4.17442C39.9975 4.17442 39.0515 3.21109 39.0515 2.0872Z" fill="white"/>
<path d="M28.9236 58.4423C28.9236 57.3184 29.8696 56.3551 31.0939 56.3551C32.2625 56.3551 33.2642 57.2649 33.2642 58.4423C33.2642 59.6197 32.3181 60.5295 31.0939 60.5295C29.8696 60.476 28.9236 59.5662 28.9236 58.4423Z" fill="white"/>
<path d="M28.9236 49.023C28.9236 47.8991 29.8696 46.9358 31.0939 46.9358C32.2625 46.9358 33.2642 47.8456 33.2642 49.023C33.2642 50.1469 32.3181 51.1102 31.0939 51.1102C29.8696 51.1102 28.9236 50.1469 28.9236 49.023Z" fill="white"/>
<path d="M28.9236 39.6573C28.9236 38.5334 29.8696 37.57 31.0939 37.57C32.2625 37.57 33.2642 38.4799 33.2642 39.6573C33.2642 40.7812 32.3181 41.7445 31.0939 41.7445C29.8696 41.691 28.9236 40.7812 28.9236 39.6573Z" fill="white"/>
<path d="M28.9236 30.238C28.9236 29.1141 29.8696 28.1508 31.0939 28.1508C32.2625 28.1508 33.2642 29.0606 33.2642 30.238C33.2642 31.3619 32.3181 32.3252 31.0939 32.3252C29.8696 32.3252 28.9236 31.3619 28.9236 30.238Z" fill="white"/>
<path d="M28.9236 20.8722C28.9236 19.7483 29.8696 18.785 31.0939 18.785C32.2625 18.785 33.2642 19.6948 33.2642 20.8722C33.2642 21.9961 32.3181 22.9595 31.0939 22.9595C29.8696 22.9059 28.9236 21.9961 28.9236 20.8722Z" fill="white"/>
<path d="M28.9236 11.4529C28.9236 10.3291 29.8696 9.36572 31.0939 9.36572C32.2625 9.36572 33.2642 10.2755 33.2642 11.4529C33.2642 12.6304 32.3181 13.5402 31.0939 13.5402C29.8696 13.5402 28.9236 12.5768 28.9236 11.4529Z" fill="white"/>
<path d="M28.9236 2.0872C28.9236 0.963305 29.8696 -3.00795e-05 31.0939 -3.02375e-05C32.2625 -3.03883e-05 33.2642 0.909786 33.2642 2.0872C33.2642 3.21109 32.3181 4.17442 31.0939 4.17442C29.8696 4.1209 28.9236 3.21109 28.9236 2.0872Z" fill="white"/>
</g>
<g clip-path="url(#clip4_10_1561)">
<path d="M53.4644 124.177C53.4644 125.301 52.5183 126.264 51.2941 126.264C50.0698 126.264 49.1238 125.355 49.1238 124.177C49.1238 123 50.0698 122.09 51.2941 122.09C52.5183 122.09 53.4644 123 53.4644 124.177Z" fill="white"/>
<path d="M53.4644 114.758C53.4644 115.882 52.5183 116.845 51.2941 116.845C50.0698 116.845 49.1238 115.935 49.1238 114.758C49.1238 113.634 50.0698 112.671 51.2941 112.671C52.5183 112.671 53.4644 113.634 53.4644 114.758Z" fill="white"/>
<path d="M53.4644 105.392C53.4644 106.516 52.5183 107.479 51.2941 107.479C50.0698 107.479 49.1238 106.569 49.1238 105.392C49.1238 104.268 50.0698 103.305 51.2941 103.305C52.5183 103.305 53.4644 104.215 53.4644 105.392Z" fill="white"/>
<path d="M53.4644 95.9728C53.4644 97.0967 52.5183 98.06 51.2941 98.06C50.0698 98.06 49.1238 97.1502 49.1238 95.9728C49.1238 94.8489 50.0698 93.8856 51.2941 93.8856C52.5183 93.8856 53.4644 94.8489 53.4644 95.9728Z" fill="white"/>
<path d="M53.4644 86.607C53.4644 87.7309 52.5183 88.6943 51.2941 88.6943C50.0698 88.6943 49.1794 87.7309 49.1794 86.607C49.1794 85.4832 50.1254 84.5198 51.3497 84.5198C52.574 84.5198 53.4644 85.4296 53.4644 86.607Z" fill="white"/>
<path d="M53.4644 77.1878C53.4644 78.3117 52.5183 79.275 51.2941 79.275C50.0698 79.275 49.1238 78.3652 49.1238 77.1878C49.1238 76.0104 50.1254 75.1541 51.2941 75.1541C52.4627 75.1541 53.4644 76.0639 53.4644 77.1878Z" fill="white"/>
<path d="M53.4644 67.822C53.4644 68.9459 52.5183 69.8557 51.2941 69.8557C50.0698 69.8557 49.1794 68.9459 49.1794 67.822C49.1794 66.6446 50.1254 65.7348 51.2941 65.7348C52.4627 65.7348 53.4644 66.6446 53.4644 67.822Z" fill="white"/>
<path d="M39.0515 124.177C39.0515 125.33 40.0232 126.264 41.2218 126.264C42.4204 126.264 43.3921 125.33 43.3921 124.177C43.3921 123.024 42.4204 122.09 41.2218 122.09C40.0232 122.09 39.0515 123.024 39.0515 124.177Z" fill="white"/>
<path d="M39.0515 114.758C39.0515 115.911 40.0232 116.845 41.2218 116.845C42.4204 116.845 43.3921 115.911 43.3921 114.758C43.3921 113.605 42.4204 112.671 41.2218 112.671C40.0232 112.671 39.0515 113.605 39.0515 114.758Z" fill="white"/>
<path d="M39.0515 105.392C39.0515 104.268 39.9975 103.305 41.2218 103.305C42.4461 103.305 43.3921 104.215 43.3921 105.392C43.3921 106.516 42.4461 107.479 41.2218 107.479C39.9975 107.479 39.0515 106.516 39.0515 105.392Z" fill="white"/>
<path d="M39.0515 95.9728C39.0515 97.1255 40.0232 98.06 41.2218 98.06C42.4204 98.06 43.3921 97.1255 43.3921 95.9728C43.3921 94.8201 42.4204 93.8856 41.2218 93.8856C40.0232 93.8856 39.0515 94.8201 39.0515 95.9728Z" fill="white"/>
<path d="M39.0515 86.607C39.0515 85.4832 39.9975 84.5198 41.2218 84.5198C42.4461 84.5198 43.3921 85.4296 43.3921 86.607C43.3921 87.7309 42.4461 88.6943 41.2218 88.6943C39.9975 88.6943 39.0515 87.7309 39.0515 86.607Z" fill="white"/>
<path d="M39.0515 77.1878C39.0515 78.3405 40.0232 79.275 41.2218 79.275C42.4204 79.275 43.3921 78.3405 43.3921 77.1878C43.3921 76.035 42.4204 75.1005 41.2218 75.1005C40.0232 75.1005 39.0515 76.035 39.0515 77.1878Z" fill="white"/>
<path d="M39.0515 67.822C39.0515 66.6446 39.9975 65.7348 41.2218 65.7348C42.4461 65.7348 43.3921 66.6446 43.3921 67.822C43.3921 68.9459 42.4461 69.9092 41.2218 69.9092C39.9975 69.9092 39.0515 68.9459 39.0515 67.822Z" fill="white"/>
<path d="M28.9236 124.177C28.9236 123.053 29.8696 122.09 31.0939 122.09C32.2625 122.09 33.2642 123 33.2642 124.177C33.2642 125.355 32.3181 126.264 31.0939 126.264C29.8696 126.211 28.9236 125.301 28.9236 124.177Z" fill="white"/>
<path d="M28.9236 114.758C28.9236 113.634 29.8696 112.671 31.0939 112.671C32.2625 112.671 33.2642 113.58 33.2642 114.758C33.2642 115.882 32.3181 116.845 31.0939 116.845C29.8696 116.845 28.9236 115.882 28.9236 114.758Z" fill="white"/>
<path d="M28.9236 105.392C28.9236 104.268 29.8696 103.305 31.0939 103.305C32.2625 103.305 33.2642 104.215 33.2642 105.392C33.2642 106.516 32.3181 107.479 31.0939 107.479C29.8696 107.426 28.9236 106.516 28.9236 105.392Z" fill="white"/>
<path d="M28.9236 95.9728C28.9236 94.8489 29.8696 93.8856 31.0939 93.8856C32.2625 93.8856 33.2642 94.7954 33.2642 95.9728C33.2642 97.0967 32.3181 98.06 31.0939 98.06C29.8696 98.06 28.9236 97.0967 28.9236 95.9728Z" fill="white"/>
<path d="M28.9236 86.607C28.9236 85.4832 29.8696 84.5198 31.0939 84.5198C32.2625 84.5198 33.2642 85.4296 33.2642 86.607C33.2642 87.7309 32.3181 88.6943 31.0939 88.6943C29.8696 88.6408 28.9236 87.7309 28.9236 86.607Z" fill="white"/>
<path d="M28.9236 77.1878C28.9236 76.0639 29.8696 75.1005 31.0939 75.1005C32.2625 75.1005 33.2642 76.0104 33.2642 77.1878C33.2642 78.3652 32.3181 79.275 31.0939 79.275C29.8696 79.275 28.9236 78.3117 28.9236 77.1878Z" fill="white"/>
<path d="M28.9236 67.822C28.9236 66.6981 29.8696 65.7348 31.0939 65.7348C32.2625 65.7348 33.2642 66.6446 33.2642 67.822C33.2642 68.9459 32.3181 69.9092 31.0939 69.9092C29.8696 69.8557 28.9236 68.9459 28.9236 67.822Z" fill="white"/>
</g>
<g clip-path="url(#clip5_10_1561)">
<path d="M53.4644 189.912C53.4644 191.036 52.5183 191.999 51.2941 191.999C50.0698 191.999 49.1238 191.089 49.1238 189.912C49.1238 188.735 50.0698 187.825 51.2941 187.825C52.5183 187.825 53.4644 188.735 53.4644 189.912Z" fill="white"/>
<path d="M53.4644 180.493C53.4644 181.617 52.5183 182.58 51.2941 182.58C50.0698 182.58 49.1238 181.67 49.1238 180.493C49.1238 179.369 50.0698 178.405 51.2941 178.405C52.5183 178.405 53.4644 179.369 53.4644 180.493Z" fill="white"/>
<path d="M53.4644 171.127C53.4644 172.251 52.5183 173.214 51.2941 173.214C50.0698 173.214 49.1238 172.304 49.1238 171.127C49.1238 170.003 50.0698 169.04 51.2941 169.04C52.5183 169.04 53.4644 169.949 53.4644 171.127Z" fill="white"/>
<path d="M53.4644 161.708C53.4644 162.832 52.5183 163.795 51.2941 163.795C50.0698 163.795 49.1238 162.885 49.1238 161.708C49.1238 160.584 50.0698 159.62 51.2941 159.62C52.5183 159.62 53.4644 160.584 53.4644 161.708Z" fill="white"/>
<path d="M53.4644 152.342C53.4644 153.466 52.5183 154.429 51.2941 154.429C50.0698 154.429 49.1794 153.466 49.1794 152.342C49.1794 151.218 50.1254 150.255 51.3497 150.255C52.574 150.255 53.4644 151.164 53.4644 152.342Z" fill="white"/>
<path d="M53.4644 142.923C53.4644 144.046 52.5183 145.01 51.2941 145.01C50.0698 145.01 49.1238 144.1 49.1238 142.923C49.1238 141.745 50.1254 140.889 51.2941 140.889C52.4627 140.889 53.4644 141.799 53.4644 142.923Z" fill="white"/>
<path d="M53.4644 133.557C53.4644 134.681 52.5183 135.591 51.2941 135.591C50.0698 135.591 49.1794 134.681 49.1794 133.557C49.1794 132.379 50.1254 131.47 51.2941 131.47C52.4627 131.47 53.4644 132.379 53.4644 133.557Z" fill="white"/>
<path d="M39.0515 189.912C39.0515 191.065 40.0232 191.999 41.2218 191.999C42.4204 191.999 43.3921 191.065 43.3921 189.912C43.3921 188.759 42.4204 187.825 41.2218 187.825C40.0232 187.825 39.0515 188.759 39.0515 189.912Z" fill="white"/>
<path d="M39.0515 180.493C39.0515 181.645 40.0232 182.58 41.2218 182.58C42.4204 182.58 43.3921 181.645 43.3921 180.493C43.3921 179.34 42.4204 178.405 41.2218 178.405C40.0232 178.405 39.0515 179.34 39.0515 180.493Z" fill="white"/>
<path d="M39.0515 171.127C39.0515 170.003 39.9975 169.04 41.2218 169.04C42.4461 169.04 43.3921 169.949 43.3921 171.127C43.3921 172.251 42.4461 173.214 41.2218 173.214C39.9975 173.214 39.0515 172.251 39.0515 171.127Z" fill="white"/>
<path d="M39.0515 161.708C39.0515 162.86 40.0232 163.795 41.2218 163.795C42.4204 163.795 43.3921 162.86 43.3921 161.708C43.3921 160.555 42.4204 159.62 41.2218 159.62C40.0232 159.62 39.0515 160.555 39.0515 161.708Z" fill="white"/>
<path d="M39.0515 152.342C39.0515 151.218 39.9975 150.255 41.2218 150.255C42.4461 150.255 43.3921 151.164 43.3921 152.342C43.3921 153.466 42.4461 154.429 41.2218 154.429C39.9975 154.429 39.0515 153.466 39.0515 152.342Z" fill="white"/>
<path d="M39.0515 142.923C39.0515 144.075 40.0232 145.01 41.2218 145.01C42.4204 145.01 43.3921 144.075 43.3921 142.923C43.3921 141.77 42.4204 140.835 41.2218 140.835C40.0232 140.835 39.0515 141.77 39.0515 142.923Z" fill="white"/>
<path d="M39.0515 133.557C39.0515 132.379 39.9975 131.47 41.2218 131.47C42.4461 131.47 43.3921 132.379 43.3921 133.557C43.3921 134.681 42.4461 135.644 41.2218 135.644C39.9975 135.644 39.0515 134.681 39.0515 133.557Z" fill="white"/>
<path d="M28.9236 189.912C28.9236 188.788 29.8696 187.825 31.0939 187.825C32.2625 187.825 33.2642 188.735 33.2642 189.912C33.2642 191.089 32.3181 191.999 31.0939 191.999C29.8696 191.946 28.9236 191.036 28.9236 189.912Z" fill="white"/>
<path d="M28.9236 180.493C28.9236 179.369 29.8696 178.405 31.0939 178.405C32.2625 178.405 33.2642 179.315 33.2642 180.493C33.2642 181.617 32.3181 182.58 31.0939 182.58C29.8696 182.58 28.9236 181.617 28.9236 180.493Z" fill="white"/>
<path d="M28.9236 171.127C28.9236 170.003 29.8696 169.04 31.0939 169.04C32.2625 169.04 33.2642 169.949 33.2642 171.127C33.2642 172.251 32.3181 173.214 31.0939 173.214C29.8696 173.161 28.9236 172.251 28.9236 171.127Z" fill="white"/>
<path d="M28.9236 161.708C28.9236 160.584 29.8696 159.62 31.0939 159.62C32.2625 159.62 33.2642 160.53 33.2642 161.708C33.2642 162.832 32.3181 163.795 31.0939 163.795C29.8696 163.795 28.9236 162.832 28.9236 161.708Z" fill="white"/>
<path d="M28.9236 152.342C28.9236 151.218 29.8696 150.255 31.0939 150.255C32.2625 150.255 33.2642 151.164 33.2642 152.342C33.2642 153.466 32.3181 154.429 31.0939 154.429C29.8696 154.376 28.9236 153.466 28.9236 152.342Z" fill="white"/>
<path d="M28.9236 142.923C28.9236 141.799 29.8696 140.835 31.0939 140.835C32.2625 140.835 33.2642 141.745 33.2642 142.923C33.2642 144.1 32.3181 145.01 31.0939 145.01C29.8696 145.01 28.9236 144.046 28.9236 142.923Z" fill="white"/>
<path d="M28.9236 133.557C28.9236 132.433 29.8696 131.47 31.0939 131.47C32.2625 131.47 33.2642 132.379 33.2642 133.557C33.2642 134.681 32.3181 135.644 31.0939 135.644C29.8696 135.591 28.9236 134.681 28.9236 133.557Z" fill="white"/>
</g>
<g clip-path="url(#clip6_10_1561)">
<path d="M82.3877 58.4423C82.3877 59.5662 81.4417 60.5295 80.2174 60.5295C78.9931 60.5295 78.0471 59.6197 78.0471 58.4423C78.0471 57.2649 78.9931 56.3551 80.2174 56.3551C81.4417 56.3551 82.3877 57.2649 82.3877 58.4423Z" fill="white"/>
<path d="M82.3877 49.023C82.3877 50.1469 81.4417 51.1102 80.2174 51.1102C78.9931 51.1102 78.0471 50.2004 78.0471 49.023C78.0471 47.8991 78.9931 46.9358 80.2174 46.9358C81.4417 46.9358 82.3877 47.8991 82.3877 49.023Z" fill="white"/>
<path d="M82.3877 39.6573C82.3877 40.7812 81.4417 41.7445 80.2174 41.7445C78.9931 41.7445 78.0471 40.8347 78.0471 39.6573C78.0471 38.5334 78.9931 37.57 80.2174 37.57C81.4417 37.57 82.3877 38.4799 82.3877 39.6573Z" fill="white"/>
<path d="M82.3877 30.238C82.3877 31.3619 81.4417 32.3252 80.2174 32.3252C78.9931 32.3252 78.0471 31.4154 78.0471 30.238C78.0471 29.1141 78.9931 28.1508 80.2174 28.1508C81.4417 28.1508 82.3877 29.1141 82.3877 30.238Z" fill="white"/>
<path d="M82.3877 20.8722C82.3877 21.9961 81.4417 22.9595 80.2174 22.9595C78.9931 22.9595 78.1028 21.9961 78.1028 20.8722C78.1028 19.7483 79.0488 18.785 80.2731 18.785C81.4973 18.785 82.3877 19.6948 82.3877 20.8722Z" fill="white"/>
<path d="M82.3877 11.453C82.3877 12.5768 81.4417 13.5402 80.2174 13.5402C78.9931 13.5402 78.0471 12.6304 78.0471 11.453C78.0471 10.2755 79.0488 9.41925 80.2174 9.41925C81.386 9.41925 82.3877 10.3291 82.3877 11.453Z" fill="white"/>
<path d="M82.3877 2.0872C82.3877 3.21109 81.4417 4.1209 80.2174 4.1209C78.9931 4.1209 78.1028 3.21109 78.1028 2.0872C78.1028 0.909786 79.0488 -3.00867e-05 80.2174 -3.02375e-05C81.386 -3.03883e-05 82.3877 0.909786 82.3877 2.0872Z" fill="white"/>
<path d="M67.9748 58.4423C67.9748 59.595 68.9465 60.5295 70.1451 60.5295C71.3438 60.5295 72.3154 59.595 72.3154 58.4423C72.3154 57.2896 71.3438 56.3551 70.1451 56.3551C68.9465 56.3551 67.9748 57.2896 67.9748 58.4423Z" fill="white"/>
<path d="M67.9748 49.023C67.9748 50.1758 68.9465 51.1102 70.1451 51.1102C71.3438 51.1102 72.3154 50.1758 72.3154 49.023C72.3154 47.8703 71.3438 46.9358 70.1451 46.9358C68.9465 46.9358 67.9748 47.8703 67.9748 49.023Z" fill="white"/>
<path d="M67.9748 39.6573C67.9748 38.5334 68.9209 37.57 70.1451 37.57C71.3694 37.57 72.3154 38.4799 72.3154 39.6573C72.3154 40.7812 71.3694 41.7445 70.1451 41.7445C68.9209 41.7445 67.9748 40.7812 67.9748 39.6573Z" fill="white"/>
<path d="M67.9748 30.238C67.9748 31.3907 68.9465 32.3252 70.1451 32.3252C71.3438 32.3252 72.3154 31.3907 72.3154 30.238C72.3154 29.0852 71.3438 28.1508 70.1451 28.1508C68.9465 28.1508 67.9748 29.0852 67.9748 30.238Z" fill="white"/>
<path d="M67.9748 20.8722C67.9748 19.7483 68.9209 18.785 70.1451 18.785C71.3694 18.785 72.3154 19.6948 72.3154 20.8722C72.3154 21.9961 71.3694 22.9595 70.1451 22.9595C68.9209 22.9595 67.9748 21.9961 67.9748 20.8722Z" fill="white"/>
<path d="M67.9748 11.4529C67.9748 12.6057 68.9465 13.5402 70.1451 13.5402C71.3438 13.5402 72.3154 12.6057 72.3154 11.4529C72.3154 10.3002 71.3438 9.36572 70.1451 9.36572C68.9465 9.36572 67.9748 10.3002 67.9748 11.4529Z" fill="white"/>
<path d="M67.9748 2.0872C67.9748 0.909786 68.9209 -3.00795e-05 70.1451 -3.02375e-05C71.3694 -3.03955e-05 72.3154 0.909786 72.3154 2.0872C72.3154 3.21109 71.3694 4.17442 70.1451 4.17442C68.9209 4.17442 67.9748 3.21109 67.9748 2.0872Z" fill="white"/>
<path d="M57.8469 58.4423C57.8469 57.3184 58.7929 56.3551 60.0172 56.3551C61.1858 56.3551 62.1875 57.2649 62.1875 58.4423C62.1875 59.6197 61.2415 60.5295 60.0172 60.5295C58.7929 60.476 57.8469 59.5662 57.8469 58.4423Z" fill="white"/>
<path d="M57.8469 49.023C57.8469 47.8991 58.7929 46.9358 60.0172 46.9358C61.1858 46.9358 62.1875 47.8456 62.1875 49.023C62.1875 50.1469 61.2415 51.1102 60.0172 51.1102C58.7929 51.1102 57.8469 50.1469 57.8469 49.023Z" fill="white"/>
<path d="M57.8469 39.6573C57.8469 38.5334 58.7929 37.57 60.0172 37.57C61.1858 37.57 62.1875 38.4799 62.1875 39.6573C62.1875 40.7812 61.2415 41.7445 60.0172 41.7445C58.7929 41.691 57.8469 40.7812 57.8469 39.6573Z" fill="white"/>
<path d="M57.8469 30.238C57.8469 29.1141 58.7929 28.1508 60.0172 28.1508C61.1858 28.1508 62.1875 29.0606 62.1875 30.238C62.1875 31.3619 61.2415 32.3252 60.0172 32.3252C58.7929 32.3252 57.8469 31.3619 57.8469 30.238Z" fill="white"/>
<path d="M57.8469 20.8722C57.8469 19.7483 58.7929 18.785 60.0172 18.785C61.1858 18.785 62.1875 19.6948 62.1875 20.8722C62.1875 21.9961 61.2415 22.9595 60.0172 22.9595C58.7929 22.9059 57.8469 21.9961 57.8469 20.8722Z" fill="white"/>
<path d="M57.8469 11.4529C57.8469 10.3291 58.7929 9.36572 60.0172 9.36572C61.1858 9.36572 62.1875 10.2755 62.1875 11.4529C62.1875 12.6304 61.2415 13.5402 60.0172 13.5402C58.7929 13.5402 57.8469 12.5768 57.8469 11.4529Z" fill="white"/>
<path d="M57.8469 2.0872C57.8469 0.963305 58.7929 -3.00795e-05 60.0172 -3.02375e-05C61.1858 -3.03883e-05 62.1875 0.909786 62.1875 2.0872C62.1875 3.21109 61.2415 4.17442 60.0172 4.17442C58.7929 4.1209 57.8469 3.21109 57.8469 2.0872Z" fill="white"/>
</g>
<g clip-path="url(#clip7_10_1561)">
<path d="M82.3877 124.177C82.3877 125.301 81.4417 126.264 80.2174 126.264C78.9931 126.264 78.0471 125.355 78.0471 124.177C78.0471 123 78.9931 122.09 80.2174 122.09C81.4417 122.09 82.3877 123 82.3877 124.177Z" fill="white"/>
<path d="M82.3877 114.758C82.3877 115.882 81.4417 116.845 80.2174 116.845C78.9931 116.845 78.0471 115.935 78.0471 114.758C78.0471 113.634 78.9931 112.671 80.2174 112.671C81.4417 112.671 82.3877 113.634 82.3877 114.758Z" fill="white"/>
<path d="M82.3877 105.392C82.3877 106.516 81.4417 107.479 80.2174 107.479C78.9931 107.479 78.0471 106.569 78.0471 105.392C78.0471 104.268 78.9931 103.305 80.2174 103.305C81.4417 103.305 82.3877 104.215 82.3877 105.392Z" fill="white"/>
<path d="M82.3877 95.9728C82.3877 97.0967 81.4417 98.06 80.2174 98.06C78.9931 98.06 78.0471 97.1502 78.0471 95.9728C78.0471 94.8489 78.9931 93.8856 80.2174 93.8856C81.4417 93.8856 82.3877 94.8489 82.3877 95.9728Z" fill="white"/>
<path d="M82.3877 86.607C82.3877 87.7309 81.4417 88.6943 80.2174 88.6943C78.9931 88.6943 78.1028 87.7309 78.1028 86.607C78.1028 85.4832 79.0488 84.5198 80.2731 84.5198C81.4973 84.5198 82.3877 85.4296 82.3877 86.607Z" fill="white"/>
<path d="M82.3877 77.1878C82.3877 78.3117 81.4417 79.275 80.2174 79.275C78.9931 79.275 78.0471 78.3652 78.0471 77.1878C78.0471 76.0104 79.0488 75.1541 80.2174 75.1541C81.386 75.1541 82.3877 76.0639 82.3877 77.1878Z" fill="white"/>
<path d="M82.3877 67.822C82.3877 68.9459 81.4417 69.8557 80.2174 69.8557C78.9931 69.8557 78.1028 68.9459 78.1028 67.822C78.1028 66.6446 79.0488 65.7348 80.2174 65.7348C81.386 65.7348 82.3877 66.6446 82.3877 67.822Z" fill="white"/>
<path d="M67.9748 124.177C67.9748 125.33 68.9465 126.264 70.1451 126.264C71.3438 126.264 72.3154 125.33 72.3154 124.177C72.3154 123.024 71.3438 122.09 70.1451 122.09C68.9465 122.09 67.9748 123.024 67.9748 124.177Z" fill="white"/>
<path d="M67.9748 114.758C67.9748 115.911 68.9465 116.845 70.1451 116.845C71.3438 116.845 72.3154 115.911 72.3154 114.758C72.3154 113.605 71.3438 112.671 70.1451 112.671C68.9465 112.671 67.9748 113.605 67.9748 114.758Z" fill="white"/>
<path d="M67.9748 105.392C67.9748 104.268 68.9209 103.305 70.1451 103.305C71.3694 103.305 72.3154 104.215 72.3154 105.392C72.3154 106.516 71.3694 107.479 70.1451 107.479C68.9209 107.479 67.9748 106.516 67.9748 105.392Z" fill="white"/>
<path d="M67.9748 95.9728C67.9748 97.1255 68.9465 98.06 70.1451 98.06C71.3438 98.06 72.3154 97.1255 72.3154 95.9728C72.3154 94.8201 71.3438 93.8856 70.1451 93.8856C68.9465 93.8856 67.9748 94.8201 67.9748 95.9728Z" fill="white"/>
<path d="M67.9748 86.607C67.9748 85.4832 68.9209 84.5198 70.1451 84.5198C71.3694 84.5198 72.3154 85.4296 72.3154 86.607C72.3154 87.7309 71.3694 88.6943 70.1451 88.6943C68.9209 88.6943 67.9748 87.7309 67.9748 86.607Z" fill="white"/>
<path d="M67.9748 77.1878C67.9748 78.3405 68.9465 79.275 70.1451 79.275C71.3438 79.275 72.3154 78.3405 72.3154 77.1878C72.3154 76.035 71.3438 75.1005 70.1451 75.1005C68.9465 75.1005 67.9748 76.035 67.9748 77.1878Z" fill="white"/>
<path d="M67.9748 67.822C67.9748 66.6446 68.9209 65.7348 70.1451 65.7348C71.3694 65.7348 72.3154 66.6446 72.3154 67.822C72.3154 68.9459 71.3694 69.9092 70.1451 69.9092C68.9209 69.9092 67.9748 68.9459 67.9748 67.822Z" fill="white"/>
<path d="M57.8469 124.177C57.8469 123.053 58.7929 122.09 60.0172 122.09C61.1858 122.09 62.1875 123 62.1875 124.177C62.1875 125.355 61.2415 126.264 60.0172 126.264C58.7929 126.211 57.8469 125.301 57.8469 124.177Z" fill="white"/>
<path d="M57.8469 114.758C57.8469 113.634 58.7929 112.671 60.0172 112.671C61.1858 112.671 62.1875 113.58 62.1875 114.758C62.1875 115.882 61.2415 116.845 60.0172 116.845C58.7929 116.845 57.8469 115.882 57.8469 114.758Z" fill="white"/>
<path d="M57.8469 105.392C57.8469 104.268 58.7929 103.305 60.0172 103.305C61.1858 103.305 62.1875 104.215 62.1875 105.392C62.1875 106.516 61.2415 107.479 60.0172 107.479C58.7929 107.426 57.8469 106.516 57.8469 105.392Z" fill="white"/>
<path d="M57.8469 95.9728C57.8469 94.8489 58.7929 93.8856 60.0172 93.8856C61.1858 93.8856 62.1875 94.7954 62.1875 95.9728C62.1875 97.0967 61.2415 98.06 60.0172 98.06C58.7929 98.06 57.8469 97.0967 57.8469 95.9728Z" fill="white"/>
<path d="M57.8469 86.607C57.8469 85.4832 58.7929 84.5198 60.0172 84.5198C61.1858 84.5198 62.1875 85.4296 62.1875 86.607C62.1875 87.7309 61.2415 88.6943 60.0172 88.6943C58.7929 88.6408 57.8469 87.7309 57.8469 86.607Z" fill="white"/>
<path d="M57.8469 77.1878C57.8469 76.0639 58.7929 75.1005 60.0172 75.1005C61.1858 75.1005 62.1875 76.0104 62.1875 77.1878C62.1875 78.3652 61.2415 79.275 60.0172 79.275C58.7929 79.275 57.8469 78.3117 57.8469 77.1878Z" fill="white"/>
<path d="M57.8469 67.822C57.8469 66.6981 58.7929 65.7348 60.0172 65.7348C61.1858 65.7348 62.1875 66.6446 62.1875 67.822C62.1875 68.9459 61.2415 69.9092 60.0172 69.9092C58.7929 69.8557 57.8469 68.9459 57.8469 67.822Z" fill="white"/>
</g>
<g clip-path="url(#clip8_10_1561)">
<path d="M82.3877 189.912C82.3877 191.036 81.4417 191.999 80.2174 191.999C78.9931 191.999 78.0471 191.089 78.0471 189.912C78.0471 188.735 78.9931 187.825 80.2174 187.825C81.4417 187.825 82.3877 188.735 82.3877 189.912Z" fill="white"/>
<path d="M82.3877 180.493C82.3877 181.617 81.4417 182.58 80.2174 182.58C78.9931 182.58 78.0471 181.67 78.0471 180.493C78.0471 179.369 78.9931 178.405 80.2174 178.405C81.4417 178.405 82.3877 179.369 82.3877 180.493Z" fill="white"/>
<path d="M82.3877 171.127C82.3877 172.251 81.4417 173.214 80.2174 173.214C78.9931 173.214 78.0471 172.304 78.0471 171.127C78.0471 170.003 78.9931 169.04 80.2174 169.04C81.4417 169.04 82.3877 169.949 82.3877 171.127Z" fill="white"/>
<path d="M82.3877 161.708C82.3877 162.832 81.4417 163.795 80.2174 163.795C78.9931 163.795 78.0471 162.885 78.0471 161.708C78.0471 160.584 78.9931 159.62 80.2174 159.62C81.4417 159.62 82.3877 160.584 82.3877 161.708Z" fill="white"/>
<path d="M82.3877 152.342C82.3877 153.466 81.4417 154.429 80.2174 154.429C78.9931 154.429 78.1028 153.466 78.1028 152.342C78.1028 151.218 79.0488 150.255 80.2731 150.255C81.4973 150.255 82.3877 151.164 82.3877 152.342Z" fill="white"/>
<path d="M82.3877 142.923C82.3877 144.046 81.4417 145.01 80.2174 145.01C78.9931 145.01 78.0471 144.1 78.0471 142.923C78.0471 141.745 79.0488 140.889 80.2174 140.889C81.386 140.889 82.3877 141.799 82.3877 142.923Z" fill="white"/>
<path d="M82.3877 133.557C82.3877 134.681 81.4417 135.591 80.2174 135.591C78.9931 135.591 78.1028 134.681 78.1028 133.557C78.1028 132.379 79.0488 131.47 80.2174 131.47C81.386 131.47 82.3877 132.379 82.3877 133.557Z" fill="white"/>
<path d="M67.9748 189.912C67.9748 191.065 68.9465 191.999 70.1451 191.999C71.3438 191.999 72.3154 191.065 72.3154 189.912C72.3154 188.759 71.3438 187.825 70.1451 187.825C68.9465 187.825 67.9748 188.759 67.9748 189.912Z" fill="white"/>
<path d="M67.9748 180.493C67.9748 181.645 68.9465 182.58 70.1451 182.58C71.3438 182.58 72.3154 181.645 72.3154 180.493C72.3154 179.34 71.3438 178.405 70.1451 178.405C68.9465 178.405 67.9748 179.34 67.9748 180.493Z" fill="white"/>
<path d="M67.9748 171.127C67.9748 170.003 68.9209 169.04 70.1451 169.04C71.3694 169.04 72.3154 169.949 72.3154 171.127C72.3154 172.251 71.3694 173.214 70.1451 173.214C68.9209 173.214 67.9748 172.251 67.9748 171.127Z" fill="white"/>
<path d="M67.9748 161.708C67.9748 162.86 68.9465 163.795 70.1451 163.795C71.3438 163.795 72.3154 162.86 72.3154 161.708C72.3154 160.555 71.3438 159.62 70.1451 159.62C68.9465 159.62 67.9748 160.555 67.9748 161.708Z" fill="white"/>
<path d="M67.9748 152.342C67.9748 151.218 68.9209 150.255 70.1451 150.255C71.3694 150.255 72.3154 151.164 72.3154 152.342C72.3154 153.466 71.3694 154.429 70.1451 154.429C68.9209 154.429 67.9748 153.466 67.9748 152.342Z" fill="white"/>
<path d="M67.9748 142.923C67.9748 144.075 68.9465 145.01 70.1451 145.01C71.3438 145.01 72.3154 144.075 72.3154 142.923C72.3154 141.77 71.3438 140.835 70.1451 140.835C68.9465 140.835 67.9748 141.77 67.9748 142.923Z" fill="white"/>
<path d="M67.9748 133.557C67.9748 132.379 68.9209 131.47 70.1451 131.47C71.3694 131.47 72.3154 132.379 72.3154 133.557C72.3154 134.681 71.3694 135.644 70.1451 135.644C68.9209 135.644 67.9748 134.681 67.9748 133.557Z" fill="white"/>
<path d="M57.8469 189.912C57.8469 188.788 58.7929 187.825 60.0172 187.825C61.1858 187.825 62.1875 188.735 62.1875 189.912C62.1875 191.089 61.2415 191.999 60.0172 191.999C58.7929 191.946 57.8469 191.036 57.8469 189.912Z" fill="white"/>
<path d="M57.8469 180.493C57.8469 179.369 58.7929 178.405 60.0172 178.405C61.1858 178.405 62.1875 179.315 62.1875 180.493C62.1875 181.617 61.2415 182.58 60.0172 182.58C58.7929 182.58 57.8469 181.617 57.8469 180.493Z" fill="white"/>
<path d="M57.8469 171.127C57.8469 170.003 58.7929 169.04 60.0172 169.04C61.1858 169.04 62.1875 169.949 62.1875 171.127C62.1875 172.251 61.2415 173.214 60.0172 173.214C58.7929 173.161 57.8469 172.251 57.8469 171.127Z" fill="white"/>
<path d="M57.8469 161.708C57.8469 160.584 58.7929 159.62 60.0172 159.62C61.1858 159.62 62.1875 160.53 62.1875 161.708C62.1875 162.832 61.2415 163.795 60.0172 163.795C58.7929 163.795 57.8469 162.832 57.8469 161.708Z" fill="white"/>
<path d="M57.8469 152.342C57.8469 151.218 58.7929 150.255 60.0172 150.255C61.1858 150.255 62.1875 151.164 62.1875 152.342C62.1875 153.466 61.2415 154.429 60.0172 154.429C58.7929 154.376 57.8469 153.466 57.8469 152.342Z" fill="white"/>
<path d="M57.8469 142.923C57.8469 141.799 58.7929 140.835 60.0172 140.835C61.1858 140.835 62.1875 141.745 62.1875 142.923C62.1875 144.1 61.2415 145.01 60.0172 145.01C58.7929 145.01 57.8469 144.046 57.8469 142.923Z" fill="white"/>
<path d="M57.8469 133.557C57.8469 132.433 58.7929 131.47 60.0172 131.47C61.1858 131.47 62.1875 132.379 62.1875 133.557C62.1875 134.681 61.2415 135.644 60.0172 135.644C58.7929 135.591 57.8469 134.681 57.8469 133.557Z" fill="white"/>
</g>
<defs>
<clipPath id="clip0_10_1561">
<rect width="60.476" height="24.541" fill="white" transform="translate(24.541 0.0543213) rotate(90)"/>
</clipPath>
<clipPath id="clip1_10_1561">
<rect width="60.476" height="24.541" fill="white" transform="translate(24.541 65.7891) rotate(90)"/>
</clipPath>
<clipPath id="clip2_10_1561">
<rect width="60.476" height="24.541" fill="white" transform="translate(24.541 131.524) rotate(90)"/>
</clipPath>
<clipPath id="clip3_10_1561">
<rect width="60.476" height="24.541" fill="white" transform="translate(53.4644 -3.05176e-05) rotate(90)"/>
</clipPath>
<clipPath id="clip4_10_1561">
<rect width="60.476" height="24.541" fill="white" transform="translate(53.4644 65.7348) rotate(90)"/>
</clipPath>
<clipPath id="clip5_10_1561">
<rect width="60.476" height="24.541" fill="white" transform="translate(53.4644 131.47) rotate(90)"/>
</clipPath>
<clipPath id="clip6_10_1561">
<rect width="60.476" height="24.541" fill="white" transform="translate(82.3877 -3.05176e-05) rotate(90)"/>
</clipPath>
<clipPath id="clip7_10_1561">
<rect width="60.476" height="24.541" fill="white" transform="translate(82.3877 65.7348) rotate(90)"/>
</clipPath>
<clipPath id="clip8_10_1561">
<rect width="60.476" height="24.541" fill="white" transform="translate(82.3877 131.47) rotate(90)"/>
</clipPath>
</defs>
</svg>
