<svg width="61" height="68" viewBox="0 0 61 68" fill="none" xmlns="http://www.w3.org/2000/svg">
<g clip-path="url(#clip0_5_842)">
<rect x="45" y="12" width="6" height="4" fill="#A5B5D3"/>
<circle cx="20" cy="31" r="3" fill="#A5B5D3"/>
<circle cx="41" cy="31" r="3" fill="#A5B5D3"/>
<path d="M26.8953 68H25.5785V59.7457H25.381C13.9579 59.7457 4.67456 50.5087 4.67456 39.1426H5.99134C5.99134 49.788 14.6821 58.4354 25.381 58.4354H26.8953V68Z" fill="#2B2B2B"/>
<path d="M35.2898 68H33.973V58.4354H35.619C46.3179 58.4354 55.0086 49.788 55.0086 39.1426H56.3254C56.3254 50.5087 47.0421 59.7457 35.619 59.7457H35.2898V68Z" fill="#2B2B2B"/>
<path d="M61 39.7649H0V39.1098C0 36.8497 1.8435 35.0154 4.11495 35.0154H56.8851C59.1565 35.0154 61 36.8497 61 39.1098V39.7649ZM1.38262 38.4547H59.5845C59.2882 37.2427 58.1689 36.3256 56.8521 36.3256H4.11495C2.79817 36.3256 1.6789 37.21 1.38262 38.4547Z" fill="#2B2B2B"/>
<path d="M55.0744 41.4683H5.89258V42.7785H55.0744V41.4683Z" fill="#2B2B2B"/>
<path d="M34.1047 35.8343H32.7879V12.578C32.7879 9.04046 35.6848 6.158 39.2401 6.158C42.7955 6.158 45.6924 9.04046 45.6924 12.578V14.7726H50.1365V12.1522C50.1365 6.158 45.2315 1.31021 39.2401 1.31021C33.2488 1.31021 28.3438 6.19075 28.3438 12.1522V35.8015H27.027V12.1522C27.027 5.47013 32.4916 0 39.2401 0C45.9887 0 51.4533 5.47013 51.4533 12.1522V16.0829H44.3756V12.578C44.3756 9.76108 42.0712 7.46821 39.2401 7.46821C36.4091 7.46821 34.1047 9.76108 34.1047 12.578V35.8343Z" fill="#2B2B2B"/>
<path d="M22.3195 36.3257H17.6779V30.79H22.3195V36.3257ZM18.9946 35.0155H21.0027V32.1003H18.9946V35.0155Z" fill="#2B2B2B"/>
<path d="M25.2164 32.1001H14.7809V30.8227C14.7809 27.973 17.1182 25.6473 19.9822 25.6473C22.8462 25.6473 25.1835 27.973 25.1835 30.8227V32.1001H25.2164ZM16.0977 30.7899H23.8996C23.8996 28.6608 22.1549 26.9248 20.0151 26.9248C17.8753 26.9248 16.1306 28.6608 16.0977 30.7899Z" fill="#2B2B2B"/>
<path d="M43.2563 36.3257H38.6146V30.79H43.2563V36.3257ZM39.9314 35.0155H41.9395V32.1003H39.9314V35.0155Z" fill="#2B2B2B"/>
<path d="M46.1533 32.1001H35.7178V30.8227C35.7178 27.973 38.0551 25.6473 40.9191 25.6473C43.7831 25.6473 46.1204 27.973 46.1204 30.8227V32.1001H46.1533ZM37.0346 30.7899H44.8365C44.8365 28.6608 43.0918 26.9248 40.952 26.9248C38.7793 26.9575 37.0346 28.6608 37.0346 30.7899Z" fill="#2B2B2B"/>
<path d="M50.795 11.923H45.0341V13.2332H50.795V11.923Z" fill="#2B2B2B"/>
<path d="M30.4836 58.4354H26.2369V59.7456H30.4836V58.4354Z" fill="#2B2B2B"/>
</g>
<defs>
<clipPath id="clip0_5_842">
<rect width="61" height="68" fill="white"/>
</clipPath>
</defs>
</svg>
