<svg width="96" height="84" viewBox="0 0 96 84" fill="none" xmlns="http://www.w3.org/2000/svg">
<path d="M10 20H49V59H10V20Z" fill="#A5B5D3"/>
<path d="M22 32H38" stroke="#2B2B2B" stroke-linecap="round" stroke-linejoin="round"/>
<path d="M30 32V47" stroke="#2B2B2B" stroke-linecap="round" stroke-linejoin="round"/>
<path d="M30 59.5C31.8523 68.217 39.7855 74 49.2951 74C54.5211 74 59.5332 71.9807 63.2286 68.3862C66.924 64.7918 69 59.9166 69 54.8333V28H49.2951" stroke="#2B2B2B" stroke-linecap="round" stroke-linejoin="round"/>
<path d="M68 63C71.9782 63 75.7936 61.3611 78.6066 58.4439C81.4196 55.5266 83 51.57 83 47.4444V28H68" stroke="#2B2B2B" stroke-linecap="round" stroke-linejoin="round"/>
<path d="M50.0135 26.3469C52.5796 27.213 55.3767 27.2178 57.946 26.3605C60.5153 25.5031 62.7043 23.8345 64.1541 21.6283C65.6039 19.4221 66.2284 16.8093 65.9252 14.2183C65.622 11.6273 64.409 9.21189 62.4853 7.36829C60.5615 5.52468 58.0411 4.36227 55.3375 4.07167C52.6338 3.78108 49.9074 4.37955 47.6052 5.76894C45.3031 7.15834 43.562 9.25618 42.6673 11.7184C41.7727 14.1807 41.7777 16.8612 42.6815 19.3204" stroke="#2B2B2B" stroke-linecap="round" stroke-linejoin="round"/>
<path d="M61.4826 24.9367C62.6831 26.181 64.2016 27.0796 65.8761 27.5368C67.5506 27.994 69.3183 27.9926 70.9907 27.5328C72.6631 27.0729 74.1774 26.1719 75.3722 24.9258C76.5669 23.6797 77.3973 22.1352 77.7748 20.4571C78.1522 18.779 78.0626 17.0302 77.5153 15.3973C76.9681 13.7644 75.9839 12.3085 74.6677 11.185C73.3514 10.0616 71.7525 9.31259 70.0414 9.01801C68.3303 8.72343 66.5713 8.89429 64.9519 9.51236" stroke="#2B2B2B" stroke-linecap="round" stroke-linejoin="round"/>
</svg>
