<svg width="60" height="68" viewBox="0 0 60 68" fill="none" xmlns="http://www.w3.org/2000/svg">
<g clip-path="url(#clip0_5_814)">
<path d="M49.6924 28.606H41.0911C37.4347 28.606 34.4399 25.6131 34.4399 21.9591V10.5098H56.3784V21.9591C56.3784 25.6131 53.3836 28.606 49.6924 28.606ZM35.8329 11.9018V21.9591C35.8329 24.8475 38.2008 27.214 41.0911 27.214H49.6924C52.5827 27.214 54.9507 24.8475 54.9507 21.9591V11.9018H35.8329Z" fill="#2B2B2B"/>
<path d="M51.6773 11.9017H47.4985V2.08802C47.4985 0.939611 48.4388 0 49.5879 0C50.7371 0 51.6773 0.939611 51.6773 2.08802V11.9017ZM48.8915 10.5097H50.2844V2.08802C50.2844 1.70522 49.971 1.39202 49.5879 1.39202C49.2049 1.39202 48.8915 1.70522 48.8915 2.08802V10.5097Z" fill="#2B2B2B"/>
<path d="M43.3197 11.9017H39.141V2.08802C39.141 0.939611 40.0812 0 41.2304 0C42.3795 0 43.3197 0.939611 43.3197 2.08802V11.9017ZM40.5339 10.5097H41.9268V2.08802C41.9268 1.70522 41.6134 1.39202 41.2304 1.39202C40.8473 1.39202 40.5339 1.70522 40.5339 2.08802V10.5097Z" fill="#2B2B2B"/>
<path d="M46.3494 31.6335H44.4689C42.2402 31.6335 40.4294 29.8239 40.4294 27.5967H41.8224C41.8224 29.0583 43.0063 30.2415 44.4689 30.2415H46.3494C47.8119 30.2415 48.9959 29.0583 48.9959 27.5967H50.3888C50.3888 29.8239 48.578 31.6335 46.3494 31.6335Z" fill="#2B2B2B"/>
<path d="M55.6819 15.0686H35.1364V16.4606H55.6819V15.0686Z" fill="#2B2B2B"/>
<path d="M56.3436 68.0001H47.5682V66.608H56.3436C57.5972 66.608 58.607 65.5988 58.607 64.346V42.735C58.607 41.4821 57.5972 40.4729 56.3436 40.4729H48.3343C46.3145 40.4729 44.6779 38.8373 44.6779 36.8189V30.9376H46.0708V36.8189C46.0708 38.0717 47.0806 39.0809 48.3343 39.0809H56.3436C58.3633 39.0809 60 40.7165 60 42.735V64.346C60 66.3644 58.3633 68.0001 56.3436 68.0001Z" fill="#2B2B2B"/>
<circle cx="24.5" cy="47.5" r="10.5" fill="#A5B5D3"/>
<path d="M42.484 68H3.65641C1.63668 68 0 66.3644 0 64.346V26.866C0 24.8475 1.63668 23.2119 3.65641 23.2119H32.1764V24.6039H3.65641C2.40279 24.6039 1.39292 25.6131 1.39292 26.866V64.346C1.39292 65.5988 2.40279 66.608 3.65641 66.608H42.484C43.7377 66.608 44.7475 65.5988 44.7475 64.346V41.7953H46.1405V64.346C46.1405 66.3644 44.5038 68 42.484 68Z" fill="#2B2B2B"/>
<path d="M41.4393 64.8679H4.73588C3.93495 64.8679 3.27332 64.2067 3.27332 63.4063V27.8403C3.27332 27.0399 3.93495 26.3787 4.73588 26.3787H34.4747V27.7707H4.73588C4.70106 27.7707 4.66623 27.8055 4.66623 27.8403V63.3715C4.66623 63.4063 4.70106 63.4411 4.73588 63.4411H41.4393C41.4741 63.4411 41.509 63.4063 41.509 63.3715V33.2343H42.9019V63.4063C42.9019 64.2067 42.2402 64.8679 41.4393 64.8679Z" fill="#2B2B2B"/>
<path d="M23.0877 60.7615C14.7302 60.7615 7.9397 53.9754 7.9397 45.6233C7.9397 37.2712 14.7302 30.4851 23.0877 30.4851C31.4452 30.4851 38.2357 37.2712 38.2357 45.6233C38.2357 53.9754 31.4452 60.7615 23.0877 60.7615ZM23.0877 31.8423C15.4963 31.8423 9.33262 38.002 9.33262 45.5885C9.33262 53.175 15.4963 59.3346 23.0877 59.3346C30.6791 59.3346 36.8428 53.175 36.8428 45.5885C36.8428 38.0368 30.6791 31.8423 23.0877 31.8423Z" fill="#2B2B2B"/>
<path d="M23.0877 56.0635C17.3071 56.0635 12.606 51.3654 12.606 45.5886C12.606 39.8117 17.3071 35.1136 23.0877 35.1136C28.8683 35.1136 33.5694 39.8117 33.5694 45.5886C33.5346 51.3654 28.8335 56.0635 23.0877 56.0635ZM23.0877 36.5405C18.0732 36.5405 13.9989 40.6121 13.9989 45.6234C13.9989 50.6346 18.0732 54.7063 23.0877 54.7063C28.1022 54.7063 32.1765 50.6346 32.1765 45.6234C32.1416 40.6121 28.0674 36.5405 23.0877 36.5405Z" fill="#2B2B2B"/>
<path d="M28.4853 48.2334C27.0227 48.2334 25.8735 47.0502 25.8735 45.6233C25.8735 44.1617 27.0575 43.0133 28.4853 43.0133C29.9478 43.0133 31.097 44.1965 31.097 45.6233C31.1318 47.0502 29.9478 48.2334 28.4853 48.2334ZM28.4853 44.3705C27.7888 44.3705 27.2665 44.9273 27.2665 45.5885C27.2665 46.2845 27.8236 46.8066 28.4853 46.8066C29.1469 46.8066 29.7041 46.2497 29.7041 45.5885C29.7389 44.9273 29.1817 44.3705 28.4853 44.3705Z" fill="#2B2B2B"/>
<path d="M18.9785 48.2334C17.516 48.2334 16.3668 47.0502 16.3668 45.6233C16.3668 44.1617 17.5508 43.0133 18.9785 43.0133C20.4411 43.0133 21.5903 44.1965 21.5903 45.6233C21.6251 47.0502 20.4411 48.2334 18.9785 48.2334ZM18.9785 44.3705C18.2821 44.3705 17.7597 44.9273 17.7597 45.5885C17.7597 46.2845 18.3169 46.8066 18.9785 46.8066C19.675 46.8066 20.1973 46.2497 20.1973 45.5885C20.2322 44.9273 19.675 44.3705 18.9785 44.3705Z" fill="#2B2B2B"/>
</g>
<defs>
<clipPath id="clip0_5_814">
<rect width="60" height="68" fill="white"/>
</clipPath>
</defs>
</svg>
