<svg width="94" height="94" viewBox="0 0 94 94" fill="none" xmlns="http://www.w3.org/2000/svg">
<g clip-path="url(#clip0_163_625)">
<path d="M15.75 47C15.75 51.6291 16.6618 56.2129 18.4332 60.4896C20.2047 64.7663 22.8012 68.6522 26.0745 71.9255C29.3478 75.1988 33.2337 77.7953 37.5104 79.5668C41.7871 81.3382 46.3709 82.25 51 82.25C55.6291 82.25 60.2129 81.3382 64.4896 79.5668C68.7663 77.7953 72.6522 75.1988 75.9255 71.9255C79.1988 68.6522 81.7953 64.7663 83.5668 60.4896C85.3382 56.2129 86.25 51.6291 86.25 47C86.25 42.3709 85.3382 37.7871 83.5668 33.5104C81.7953 29.2337 79.1988 25.3478 75.9255 22.0745C72.6522 18.8012 68.7663 16.2047 64.4896 14.4332C60.2129 12.6618 55.6291 11.75 51 11.75C46.3709 11.75 41.7871 12.6618 37.5104 14.4332C33.2337 16.2047 29.3478 18.8012 26.0745 22.0745C22.8012 25.3478 20.2047 29.2337 18.4332 33.5104C16.6618 37.7871 15.75 42.3709 15.75 47Z" fill="#A5B5D3"/>
<path d="M11.75 47C11.75 51.6291 12.6618 56.2129 14.4332 60.4896C16.2047 64.7663 18.8012 68.6522 22.0745 71.9255C25.3478 75.1988 29.2337 77.7953 33.5104 79.5668C37.7871 81.3382 42.3709 82.25 47 82.25C51.6291 82.25 56.2129 81.3382 60.4896 79.5668C64.7663 77.7953 68.6522 75.1988 71.9255 71.9255C75.1988 68.6522 77.7953 64.7663 79.5668 60.4896C81.3382 56.2129 82.25 51.6291 82.25 47C82.25 42.3709 81.3382 37.7871 79.5668 33.5104C77.7953 29.2337 75.1988 25.3478 71.9255 22.0745C68.6522 18.8012 64.7663 16.2047 60.4896 14.4332C56.2129 12.6618 51.6291 11.75 47 11.75C42.3709 11.75 37.7871 12.6618 33.5104 14.4332C29.2337 16.2047 25.3478 18.8012 22.0745 22.0745C18.8012 25.3478 16.2047 29.2337 14.4332 33.5104C12.6618 37.7871 11.75 42.3709 11.75 47Z" stroke="#2C3E50" stroke-linecap="round" stroke-linejoin="round"/>
<path d="M47 47L58.75 54.8333" stroke="#2C3E50" stroke-linecap="round" stroke-linejoin="round"/>
<path d="M47 27.4166V47" stroke="#2C3E50" stroke-linecap="round" stroke-linejoin="round"/>
</g>
<defs>
<clipPath id="clip0_163_625">
<rect width="94" height="94" fill="white"/>
</clipPath>
</defs>
</svg>
