<svg width="53" height="53" viewBox="0 0 53 53" fill="none" xmlns="http://www.w3.org/2000/svg">
<circle cx="26" cy="27" r="12" fill="#637AA9"/>
<circle opacity="0.1" cx="26.5" cy="26.5" r="19.5" fill="#637AA9"/>
<circle opacity="0.05" cx="26.5" cy="26.5" r="26.5" fill="#637AA9"/>
<g clip-path="url(#clip0_1_2)">
<path d="M31.5197 21.716C31.0233 21.4487 30.4697 21.9642 30.1451 22.2697C29.4006 22.9951 28.7706 23.8352 28.0642 24.5988C27.2814 25.4388 26.5559 26.2789 25.7541 27.0998C25.2959 27.558 24.7995 28.0544 24.4941 28.6271C23.8068 27.9589 23.215 27.2334 22.4513 26.6416C21.8976 26.2216 20.9813 25.9161 21.0004 26.928C21.0385 28.2453 22.2031 29.6581 23.0622 30.5554C23.425 30.9372 23.9022 31.3381 24.4559 31.3572C25.1241 31.3954 25.8114 30.5935 26.2123 30.1544C26.9187 29.3908 27.4915 28.5316 28.1405 27.7489C28.9805 26.718 29.8397 25.7061 30.6606 24.6561C31.1761 24.007 32.7988 22.4033 31.5197 21.716ZM21.8403 26.8516C21.8213 26.8516 21.8022 26.8516 21.764 26.8707C21.6876 26.8516 21.6303 26.8325 21.554 26.7943C21.6112 26.7561 21.7067 26.7752 21.8403 26.8516Z" fill="white"/>
</g>
<defs>
<clipPath id="clip0_1_2">
<rect width="11" height="11" fill="white" transform="translate(21 21)"/>
</clipPath>
</defs>
</svg>
