<svg width="115" height="115" viewBox="0 0 115 115" fill="none" xmlns="http://www.w3.org/2000/svg">
<g clip-path="url(#clip0_163_617)">
<path d="M84.4583 43.125V33.5417C84.4583 31 83.4487 28.5625 81.6514 26.7653C79.8542 24.968 77.4167 23.9584 74.875 23.9584H26.9583C24.4167 23.9584 21.9791 24.968 20.1819 26.7653C18.3847 28.5625 17.375 31 17.375 33.5417V62.2917C17.375 64.8334 18.3847 67.2709 20.1819 69.0681C21.9791 70.8654 24.4167 71.875 26.9583 71.875H36.5417" fill="#A5B5D3"/>
<path d="M81.4583 43.125V33.5417C81.4583 31 80.4487 28.5625 78.6514 26.7653C76.8542 24.968 74.4167 23.9584 71.875 23.9584H23.9583C21.4167 23.9584 18.9791 24.968 17.1819 26.7653C15.3847 28.5625 14.375 31 14.375 33.5417V62.2917C14.375 64.8334 15.3847 67.2709 17.1819 69.0681C18.9791 70.8654 21.4167 71.875 23.9583 71.875H33.5417" stroke="#2C3E50" stroke-linecap="round" stroke-linejoin="round"/>
<path d="M33.5415 52.7083C33.5415 50.1667 34.5512 47.7291 36.3484 45.9319C38.1456 44.1347 40.5832 43.125 43.1248 43.125H91.0415C93.5832 43.125 96.0207 44.1347 97.8179 45.9319C99.6152 47.7291 100.625 50.1667 100.625 52.7083V81.4583C100.625 84 99.6152 86.4375 97.8179 88.2348C96.0207 90.032 93.5832 91.0417 91.0415 91.0417H43.1248C40.5832 91.0417 38.1456 90.032 36.3484 88.2348C34.5512 86.4375 33.5415 84 33.5415 81.4583V52.7083Z" fill="#F3F3F3" stroke="#2C3E50" stroke-linecap="round" stroke-linejoin="round"/>
<path d="M60.5 67.0833C60.5 69.625 61.5097 72.0625 63.3069 73.8598C65.1041 75.657 67.5417 76.6667 70.0833 76.6667C72.625 76.6667 75.0625 75.657 76.8598 73.8598C78.657 72.0625 79.6667 69.625 79.6667 67.0833C79.6667 64.5417 78.657 62.1041 76.8598 60.3069C75.0625 58.5097 72.625 57.5 70.0833 57.5C67.5417 57.5 65.1041 58.5097 63.3069 60.3069C61.5097 62.1041 60.5 64.5417 60.5 67.0833Z" fill="#A5B5D3"/>
<path d="M57.5 67.0833C57.5 69.625 58.5097 72.0625 60.3069 73.8598C62.1041 75.657 64.5417 76.6667 67.0833 76.6667C69.625 76.6667 72.0625 75.657 73.8598 73.8598C75.657 72.0625 76.6667 69.625 76.6667 67.0833C76.6667 64.5417 75.657 62.1041 73.8598 60.3069C72.0625 58.5097 69.625 57.5 67.0833 57.5C64.5417 57.5 62.1041 58.5097 60.3069 60.3069C58.5097 62.1041 57.5 64.5417 57.5 67.0833Z" stroke="#2C3E50" stroke-linecap="round" stroke-linejoin="round"/>
</g>
<defs>
<clipPath id="clip0_163_617">
<rect width="115" height="115" fill="white"/>
</clipPath>
</defs>
</svg>
