<svg width="89" height="89" viewBox="0 0 89 89" fill="none" xmlns="http://www.w3.org/2000/svg">
<g clip-path="url(#clip0_163_608)">
<path d="M53.9165 11.125V25.9583C53.9165 26.9418 54.3072 27.8851 55.0027 28.5805C55.6981 29.276 56.6413 29.6667 57.6248 29.6667H72.4582" fill="#A5B5D3"/>
<path d="M51.9165 11.125V25.9583C51.9165 26.9418 52.3072 27.8851 53.0027 28.5805C53.6981 29.276 54.6413 29.6667 55.6248 29.6667H70.4582" stroke="#2C3E50" stroke-linecap="round" stroke-linejoin="round"/>
<path d="M63.0415 77.875H25.9582C23.9911 77.875 22.1047 77.0936 20.7138 75.7027C19.3229 74.3118 18.5415 72.4254 18.5415 70.4583V18.5417C18.5415 16.5746 19.3229 14.6882 20.7138 13.2973C22.1047 11.9064 23.9911 11.125 25.9582 11.125H51.9165L70.4582 29.6667V70.4583C70.4582 72.4254 69.6768 74.3118 68.2859 75.7027C66.895 77.0936 65.0085 77.875 63.0415 77.875Z" stroke="#2C3E50" stroke-linecap="round" stroke-linejoin="round"/>
</g>
<defs>
<clipPath id="clip0_163_608">
<rect width="89" height="89" fill="white"/>
</clipPath>
</defs>
</svg>
