<svg width="66" height="55" viewBox="0 0 66 55" fill="none" xmlns="http://www.w3.org/2000/svg">
<g clip-path="url(#clip0_5_871)">
<rect x="15" y="10" width="18" height="16" fill="#A5B5D3"/>
<rect x="15" y="31" width="18" height="16" fill="#A5B5D3"/>
<rect x="39" y="10" width="18" height="16" fill="#A5B5D3"/>
<rect x="39" y="31" width="18" height="16" fill="#A5B5D3"/>
<path d="M60.6768 51.0326H5.323V0H60.6768V51.0326ZM6.5904 49.7528H59.4094V1.27981H6.5904V49.7528Z" fill="#2B2B2B"/>
<path d="M57.1282 47.4491H8.87183V3.61548H57.0965V47.4491H57.1282ZM10.1392 46.1693H55.8291V4.89529H10.1392V46.1693Z" fill="#2B2B2B"/>
<path d="M66 55H0V49.7848H66V55ZM1.2674 53.7202H64.7326V51.0646H1.2674V53.7202Z" fill="#2B2B2B"/>
<path d="M33.6495 4.25537H32.3821V46.8092H33.6495V4.25537Z" fill="#2B2B2B"/>
<path d="M56.4629 24.8923H9.50562V26.1721H56.4629V24.8923Z" fill="#2B2B2B"/>
</g>
<defs>
<clipPath id="clip0_5_871">
<rect width="66" height="55" fill="white"/>
</clipPath>
</defs>
</svg>
