<svg width="96" height="96" viewBox="0 0 96 96" fill="none" xmlns="http://www.w3.org/2000/svg">
<g clip-path="url(#clip0_116_27)">
<path d="M47.18 84H20C17.8783 84 15.8434 83.1571 14.3431 81.6569C12.8429 80.1566 12 78.1217 12 76V28C12 25.8783 12.8429 23.8434 14.3431 22.3431C15.8434 20.8429 17.8783 20 20 20H68C70.1217 20 72.1566 20.8429 73.6569 22.3431C75.1571 23.8434 76 25.8783 76 28V44" stroke="#2B2B2B" stroke-linecap="round" stroke-linejoin="round"/>
<path d="M53 71C53 75.2435 54.6857 79.3131 57.6863 82.3137C60.6869 85.3143 64.7565 87 69 87C73.2435 87 77.3131 85.3143 80.3137 82.3137C83.3143 79.3131 85 75.2435 85 71C85 66.7565 83.3143 62.6869 80.3137 59.6863C77.3131 56.6857 73.2435 55 69 55C64.7565 55 60.6869 56.6857 57.6863 59.6863C54.6857 62.6869 53 66.7565 53 71Z" fill="#A5B5D3"/>
<path d="M56 72C56 76.2435 57.6857 80.3131 60.6863 83.3137C63.6869 86.3143 67.7565 88 72 88C76.2435 88 80.3131 86.3143 83.3137 83.3137C86.3143 80.3131 88 76.2435 88 72C88 67.7565 86.3143 63.6869 83.3137 60.6863C80.3131 57.6857 76.2435 56 72 56C67.7565 56 63.6869 57.6857 60.6863 60.6863C57.6857 63.6869 56 67.7565 56 72Z" stroke="#2B2B2B" stroke-linecap="round" stroke-linejoin="round"/>
<path d="M60 12V28" stroke="#2B2B2B" stroke-linecap="round" stroke-linejoin="round"/>
<path d="M28 12V28" stroke="#2B2B2B" stroke-linecap="round" stroke-linejoin="round"/>
<path d="M12 44H76" stroke="#2B2B2B" stroke-linecap="round" stroke-linejoin="round"/>
<path d="M72 65.984V72L76 76" stroke="#2B2B2B" stroke-linecap="round" stroke-linejoin="round"/>
</g>
<defs>
<clipPath id="clip0_116_27">
<rect width="96" height="96" fill="white"/>
</clipPath>
</defs>
</svg>
