<svg width="88" height="88" viewBox="0 0 88 88" fill="none" xmlns="http://www.w3.org/2000/svg">
<g clip-path="url(#clip0_163_598)">
<path d="M36 47C36 49.1217 36.8429 51.1566 38.3431 52.6569C39.8434 54.1571 41.8783 55 44 55C46.1217 55 48.1566 54.1571 49.6569 52.6569C51.1571 51.1566 52 49.1217 52 47C52 44.8783 51.1571 42.8434 49.6569 41.3431C48.1566 39.8429 46.1217 39 44 39C41.8783 39 39.8434 39.8429 38.3431 41.3431C36.8429 42.8434 36 44.8783 36 47Z" stroke="#2C3E50" stroke-linecap="round" stroke-linejoin="round"/>
<path d="M29 77V71.6667C29 68.8377 29.7902 66.1246 31.1967 64.1242C32.6032 62.1238 34.5109 61 36.5 61H51.5C53.4891 61 55.3968 62.1238 56.8033 64.1242C58.2098 66.1246 59 68.8377 59 71.6667V77" stroke="#2C3E50" stroke-linecap="round" stroke-linejoin="round"/>
<path d="M56 19C56 21.1217 56.8429 23.1566 58.3431 24.6569C59.8434 26.1571 61.8783 27 64 27C66.1217 27 68.1566 26.1571 69.6569 24.6569C71.1571 23.1566 72 21.1217 72 19C72 16.8783 71.1571 14.8434 69.6569 13.3431C68.1566 11.8429 66.1217 11 64 11C61.8783 11 59.8434 11.8429 58.3431 13.3431C56.8429 14.8434 56 16.8783 56 19Z" fill="#A5B5D3"/>
<path d="M21 19C21 21.1217 21.8429 23.1566 23.3431 24.6569C24.8434 26.1571 26.8783 27 29 27C31.1217 27 33.1566 26.1571 34.6569 24.6569C36.1571 23.1566 37 21.1217 37 19C37 16.8783 36.1571 14.8434 34.6569 13.3431C33.1566 11.8429 31.1217 11 29 11C26.8783 11 24.8434 11.8429 23.3431 13.3431C21.8429 14.8434 21 16.8783 21 19Z" fill="#A5B5D3"/>
<path d="M54 19C54 21.1217 54.8429 23.1566 56.3431 24.6569C57.8434 26.1571 59.8783 27 62 27C64.1217 27 66.1566 26.1571 67.6569 24.6569C69.1571 23.1566 70 21.1217 70 19C70 16.8783 69.1571 14.8434 67.6569 13.3431C66.1566 11.8429 64.1217 11 62 11C59.8783 11 57.8434 11.8429 56.3431 13.3431C54.8429 14.8434 54 16.8783 54 19Z" stroke="#2C3E50" stroke-linecap="round" stroke-linejoin="round"/>
<path d="M55 32H66C68.9174 32 71.7153 33.1238 73.7782 35.1242C75.8411 37.1246 77 39.8377 77 42.6667V48" stroke="#2C3E50" stroke-linecap="round" stroke-linejoin="round"/>
<path d="M19 19C19 21.1217 19.8429 23.1566 21.3431 24.6569C22.8434 26.1571 24.8783 27 27 27C29.1217 27 31.1566 26.1571 32.6569 24.6569C34.1571 23.1566 35 21.1217 35 19C35 16.8783 34.1571 14.8434 32.6569 13.3431C31.1566 11.8429 29.1217 11 27 11C24.8783 11 22.8434 11.8429 21.3431 13.3431C19.8429 14.8434 19 16.8783 19 19Z" stroke="#2C3E50" stroke-linecap="round" stroke-linejoin="round"/>
<path d="M11 48V42.6667C11 39.8377 12.1589 37.1246 14.2218 35.1242C16.2847 33.1238 19.0826 32 22 32H33" stroke="#2C3E50" stroke-linecap="round" stroke-linejoin="round"/>
</g>
<defs>
<clipPath id="clip0_163_598">
<rect width="88" height="88" fill="white"/>
</clipPath>
</defs>
</svg>
