<svg width="121" height="81" viewBox="0 0 121 81" fill="none" xmlns="http://www.w3.org/2000/svg">
<g clip-path="url(#clip0_1_257)">
<path d="M118.092 -4.22331e-09C119.162 -6.49741e-09 120.08 0.901325 120.08 2.06775C120.08 3.23417 119.213 4.13549 118.092 4.13549C116.97 4.13549 116.103 3.23417 116.103 2.06775C116.103 0.901325 116.97 -1.84093e-09 118.092 -4.22331e-09Z" fill="white"/>
<path d="M109.117 -4.22332e-09C110.188 -6.49742e-09 111.106 0.901325 111.106 2.06775C111.106 3.23417 110.239 4.13549 109.117 4.13549C108.047 4.13549 107.129 3.23417 107.129 2.06775C107.129 0.901325 108.047 -1.94923e-09 109.117 -4.22332e-09Z" fill="white"/>
<path d="M100.194 -4.22332e-09C101.265 -6.49741e-09 102.183 0.901325 102.183 2.06775C102.183 3.23417 101.316 4.13549 100.194 4.13549C99.1234 4.13549 98.2056 3.23417 98.2056 2.06775C98.2056 0.901325 99.0725 -1.84094e-09 100.194 -4.22332e-09Z" fill="white"/>
<path d="M91.2201 -4.22333e-09C92.2908 -6.49743e-09 93.2087 0.901325 93.2087 2.06775C93.2087 3.23417 92.3418 4.13549 91.2201 4.13549C90.1493 4.13549 89.2314 3.23417 89.2314 2.06775C89.2314 0.901325 90.1493 -1.94923e-09 91.2201 -4.22333e-09Z" fill="white"/>
<path d="M82.2968 -4.22333e-09C83.3676 -6.49742e-09 84.2854 0.901325 84.2854 2.06775C84.2854 3.23417 83.3676 4.08247 82.2968 4.08247C81.226 4.08247 80.3082 3.18115 80.3082 2.01473C80.3082 0.848306 81.175 -1.84094e-09 82.2968 -4.22333e-09Z" fill="white"/>
<path d="M73.3226 -4.11503e-09C74.3934 -6.38913e-09 75.3112 0.901325 75.3112 2.06775C75.3112 3.23417 74.4444 4.13549 73.3226 4.13549C72.2008 4.13549 71.385 3.18115 71.385 2.06775C71.385 0.954344 72.2518 -1.84093e-09 73.3226 -4.11503e-09Z" fill="white"/>
<path d="M64.3994 -4.22332e-09C65.4702 -6.49742e-09 66.337 0.901325 66.337 2.06775C66.337 3.23417 65.4702 4.08247 64.3994 4.08247C63.2776 4.08247 62.4108 3.18115 62.4108 2.06775C62.4108 0.954344 63.2776 -1.84094e-09 64.3994 -4.22332e-09Z" fill="white"/>
<path d="M118.092 13.7319C119.19 13.7319 120.08 12.8062 120.08 11.6642C120.08 10.5222 119.19 9.59644 118.092 9.59644C116.993 9.59644 116.103 10.5222 116.103 11.6642C116.103 12.8062 116.993 13.7319 118.092 13.7319Z" fill="white"/>
<path d="M109.117 13.7319C110.216 13.7319 111.106 12.8062 111.106 11.6642C111.106 10.5222 110.216 9.59644 109.117 9.59644C108.019 9.59644 107.129 10.5222 107.129 11.6642C107.129 12.8062 108.019 13.7319 109.117 13.7319Z" fill="white"/>
<path d="M100.194 13.7319C99.1234 13.7319 98.2056 12.8306 98.2056 11.6642C98.2056 10.4978 99.0725 9.59644 100.194 9.59644C101.265 9.59644 102.183 10.4978 102.183 11.6642C102.183 12.8306 101.265 13.7319 100.194 13.7319Z" fill="white"/>
<path d="M91.2201 13.7319C92.3183 13.7319 93.2087 12.8062 93.2087 11.6642C93.2087 10.5222 92.3183 9.59644 91.2201 9.59644C90.1218 9.59644 89.2314 10.5222 89.2314 11.6642C89.2314 12.8062 90.1218 13.7319 91.2201 13.7319Z" fill="white"/>
<path d="M82.2968 13.7319C81.226 13.7319 80.3082 12.8306 80.3082 11.6642C80.3082 10.4978 81.175 9.59644 82.2968 9.59644C83.3676 9.59644 84.2854 10.4978 84.2854 11.6642C84.2854 12.8306 83.3676 13.7319 82.2968 13.7319Z" fill="white"/>
<path d="M73.3226 13.7319C74.4209 13.7319 75.3112 12.8062 75.3112 11.6642C75.3112 10.5222 74.4209 9.59644 73.3226 9.59644C72.2243 9.59644 71.334 10.5222 71.334 11.6642C71.334 12.8062 72.2243 13.7319 73.3226 13.7319Z" fill="white"/>
<path d="M64.3994 13.7319C63.2776 13.7319 62.4108 12.8306 62.4108 11.6642C62.4108 10.4978 63.2776 9.59644 64.3994 9.59644C65.4702 9.59644 66.388 10.4978 66.388 11.6642C66.388 12.8306 65.4702 13.7319 64.3994 13.7319Z" fill="white"/>
<path d="M118.092 23.3813C117.021 23.3813 116.103 22.48 116.103 21.3136C116.103 20.2002 116.97 19.2458 118.092 19.2458C119.213 19.2458 120.08 20.1472 120.08 21.3136C120.029 22.48 119.162 23.3813 118.092 23.3813Z" fill="white"/>
<path d="M109.117 23.3813C108.047 23.3813 107.129 22.48 107.129 21.3136C107.129 20.2002 107.996 19.2458 109.117 19.2458C110.188 19.2458 111.106 20.1472 111.106 21.3136C111.106 22.48 110.188 23.3813 109.117 23.3813Z" fill="white"/>
<path d="M100.194 23.3813C99.1234 23.3813 98.2056 22.48 98.2056 21.3136C98.2056 20.2002 99.0725 19.2458 100.194 19.2458C101.265 19.2458 102.183 20.1472 102.183 21.3136C102.132 22.48 101.265 23.3813 100.194 23.3813Z" fill="white"/>
<path d="M91.2201 23.3813C90.1493 23.3813 89.2314 22.48 89.2314 21.3136C89.2314 20.2002 90.0983 19.2458 91.2201 19.2458C92.2908 19.2458 93.2087 20.1472 93.2087 21.3136C93.2087 22.48 92.2908 23.3813 91.2201 23.3813Z" fill="white"/>
<path d="M82.2968 23.3813C81.226 23.3813 80.3082 22.48 80.3082 21.3136C80.3082 20.2002 81.1751 19.2458 82.2968 19.2458C83.3676 19.2458 84.2854 20.1472 84.2854 21.3136C84.2344 22.48 83.3676 23.3813 82.2968 23.3813Z" fill="white"/>
<path d="M73.3226 23.3813C72.2518 23.3813 71.334 22.48 71.334 21.3136C71.334 20.2002 72.2008 19.2458 73.3226 19.2458C74.4444 19.2458 75.3112 20.1472 75.3112 21.3136C75.3112 22.48 74.3934 23.3813 73.3226 23.3813Z" fill="white"/>
<path d="M64.3994 23.3813C63.3286 23.3813 62.4108 22.48 62.4108 21.3136C62.4108 20.2002 63.2776 19.2458 64.3994 19.2458C65.4702 19.2458 66.388 20.1472 66.388 21.3136C66.337 22.48 65.4702 23.3813 64.3994 23.3813Z" fill="white"/>
</g>
<g clip-path="url(#clip1_1_257)">
<path d="M118.092 28.3918C119.162 28.3918 120.08 29.2932 120.08 30.4596C120.08 31.626 119.213 32.5273 118.092 32.5273C116.97 32.5273 116.103 31.626 116.103 30.4596C116.103 29.2932 116.97 28.3918 118.092 28.3918Z" fill="white"/>
<path d="M109.117 28.3918C110.188 28.3918 111.106 29.2932 111.106 30.4596C111.106 31.626 110.239 32.5273 109.117 32.5273C108.047 32.5273 107.129 31.626 107.129 30.4596C107.129 29.2932 108.047 28.3918 109.117 28.3918Z" fill="white"/>
<path d="M100.194 28.3918C101.265 28.3918 102.183 29.2932 102.183 30.4596C102.183 31.626 101.316 32.5273 100.194 32.5273C99.1234 32.5273 98.2056 31.626 98.2056 30.4596C98.2056 29.2932 99.0725 28.3918 100.194 28.3918Z" fill="white"/>
<path d="M91.2201 28.3918C92.2908 28.3918 93.2087 29.2932 93.2087 30.4596C93.2087 31.626 92.3418 32.5273 91.2201 32.5273C90.1493 32.5273 89.2314 31.626 89.2314 30.4596C89.2314 29.2932 90.1493 28.3918 91.2201 28.3918Z" fill="white"/>
<path d="M82.2968 28.3918C83.3676 28.3918 84.2854 29.2932 84.2854 30.4596C84.2854 31.626 83.3676 32.4743 82.2968 32.4743C81.226 32.4743 80.3082 31.573 80.3082 30.4066C80.3082 29.2402 81.175 28.3918 82.2968 28.3918Z" fill="white"/>
<path d="M73.3226 28.3918C74.3934 28.3918 75.3112 29.2932 75.3112 30.4596C75.3112 31.626 74.4444 32.5273 73.3226 32.5273C72.2008 32.5273 71.385 31.573 71.385 30.4596C71.385 29.3462 72.2518 28.3918 73.3226 28.3918Z" fill="white"/>
<path d="M64.3994 28.3918C65.4702 28.3918 66.337 29.2932 66.337 30.4596C66.337 31.626 65.4702 32.4743 64.3994 32.4743C63.2776 32.4743 62.4108 31.573 62.4108 30.4596C62.4108 29.3462 63.2776 28.3918 64.3994 28.3918Z" fill="white"/>
<path d="M118.092 42.1238C119.19 42.1238 120.08 41.198 120.08 40.056C120.08 38.914 119.19 37.9883 118.092 37.9883C116.993 37.9883 116.103 38.914 116.103 40.056C116.103 41.198 116.993 42.1238 118.092 42.1238Z" fill="white"/>
<path d="M109.117 42.1238C110.216 42.1238 111.106 41.198 111.106 40.056C111.106 38.914 110.216 37.9883 109.117 37.9883C108.019 37.9883 107.129 38.914 107.129 40.056C107.129 41.198 108.019 42.1238 109.117 42.1238Z" fill="white"/>
<path d="M100.194 42.1238C99.1234 42.1238 98.2056 41.2224 98.2056 40.056C98.2056 38.8896 99.0725 37.9883 100.194 37.9883C101.265 37.9883 102.183 38.8896 102.183 40.056C102.183 41.2224 101.265 42.1238 100.194 42.1238Z" fill="white"/>
<path d="M91.2201 42.1238C92.3183 42.1238 93.2087 41.198 93.2087 40.056C93.2087 38.914 92.3183 37.9883 91.2201 37.9883C90.1218 37.9883 89.2314 38.914 89.2314 40.056C89.2314 41.198 90.1218 42.1238 91.2201 42.1238Z" fill="white"/>
<path d="M82.2968 42.1238C81.226 42.1238 80.3082 41.2224 80.3082 40.056C80.3082 38.8896 81.175 37.9883 82.2968 37.9883C83.3676 37.9883 84.2854 38.8896 84.2854 40.056C84.2854 41.2224 83.3676 42.1238 82.2968 42.1238Z" fill="white"/>
<path d="M73.3226 42.1238C74.4209 42.1238 75.3112 41.198 75.3112 40.056C75.3112 38.914 74.4209 37.9883 73.3226 37.9883C72.2243 37.9883 71.334 38.914 71.334 40.056C71.334 41.198 72.2243 42.1238 73.3226 42.1238Z" fill="white"/>
<path d="M64.3994 42.1238C63.2776 42.1238 62.4108 41.2224 62.4108 40.056C62.4108 38.8896 63.2776 37.9883 64.3994 37.9883C65.4702 37.9883 66.388 38.8896 66.388 40.056C66.388 41.2224 65.4702 42.1238 64.3994 42.1238Z" fill="white"/>
</g>
<g clip-path="url(#clip2_1_257)">
<path d="M55.681 -4.22331e-09C56.7518 -6.49741e-09 57.6696 0.901325 57.6696 2.06775C57.6696 3.23417 56.8028 4.13549 55.681 4.13549C54.5593 4.13549 53.6924 3.23417 53.6924 2.06775C53.6924 0.901325 54.5593 -1.84093e-09 55.681 -4.22331e-09Z" fill="white"/>
<path d="M46.7068 -4.22332e-09C47.7776 -6.49742e-09 48.6954 0.901325 48.6954 2.06775C48.6954 3.23417 47.8286 4.13549 46.7068 4.13549C45.636 4.13549 44.7182 3.23417 44.7182 2.06775C44.7182 0.901325 45.636 -1.94923e-09 46.7068 -4.22332e-09Z" fill="white"/>
<path d="M37.7836 -4.22332e-09C38.8544 -6.49741e-09 39.7722 0.901325 39.7722 2.06775C39.7722 3.23417 38.9054 4.13549 37.7836 4.13549C36.7128 4.13549 35.795 3.23417 35.795 2.06775C35.795 0.901325 36.6618 -1.84094e-09 37.7836 -4.22332e-09Z" fill="white"/>
<path d="M28.8094 -4.22333e-09C29.8802 -6.49743e-09 30.798 0.901325 30.798 2.06775C30.798 3.23417 29.9312 4.13549 28.8094 4.13549C27.7386 4.13549 26.8208 3.23417 26.8208 2.06775C26.8208 0.901325 27.7386 -1.94923e-09 28.8094 -4.22333e-09Z" fill="white"/>
<path d="M19.8862 -4.22333e-09C20.9569 -6.49742e-09 21.8748 0.901325 21.8748 2.06775C21.8748 3.23417 20.9569 4.08247 19.8862 4.08247C18.8154 4.08247 17.8976 3.18115 17.8976 2.01473C17.8976 0.848306 18.7644 -1.84094e-09 19.8862 -4.22333e-09Z" fill="white"/>
<path d="M10.9119 -4.11503e-09C11.9827 -6.38913e-09 12.9006 0.901325 12.9006 2.06775C12.9006 3.23417 12.0337 4.13549 10.9119 4.13549C9.79017 4.13549 8.97433 3.18115 8.97433 2.06775C8.97433 0.954344 9.84116 -1.84093e-09 10.9119 -4.11503e-09Z" fill="white"/>
<path d="M1.98873 -4.22332e-09C3.05951 -6.49742e-09 3.92634 0.901325 3.92634 2.06775C3.92634 3.23417 3.05951 4.08247 1.98873 4.08247C0.86695 4.08247 0.000122064 3.18115 0.000122066 2.06775C0.000122068 0.954344 0.86695 -1.84094e-09 1.98873 -4.22332e-09Z" fill="white"/>
<path d="M55.681 13.7319C56.7793 13.7319 57.6696 12.8062 57.6696 11.6642C57.6696 10.5222 56.7793 9.59644 55.681 9.59644C54.5828 9.59644 53.6924 10.5222 53.6924 11.6642C53.6924 12.8062 54.5828 13.7319 55.681 13.7319Z" fill="white"/>
<path d="M46.7068 13.7319C47.8051 13.7319 48.6954 12.8062 48.6954 11.6642C48.6954 10.5222 47.8051 9.59644 46.7068 9.59644C45.6086 9.59644 44.7182 10.5222 44.7182 11.6642C44.7182 12.8062 45.6086 13.7319 46.7068 13.7319Z" fill="white"/>
<path d="M37.7836 13.7319C36.7128 13.7319 35.795 12.8306 35.795 11.6642C35.795 10.4978 36.6618 9.59644 37.7836 9.59644C38.8544 9.59644 39.7722 10.4978 39.7722 11.6642C39.7722 12.8306 38.8544 13.7319 37.7836 13.7319Z" fill="white"/>
<path d="M28.8094 13.7319C29.9077 13.7319 30.798 12.8062 30.798 11.6642C30.798 10.5222 29.9077 9.59644 28.8094 9.59644C27.7111 9.59644 26.8208 10.5222 26.8208 11.6642C26.8208 12.8062 27.7111 13.7319 28.8094 13.7319Z" fill="white"/>
<path d="M19.8862 13.7319C18.8154 13.7319 17.8976 12.8306 17.8976 11.6642C17.8976 10.4978 18.7644 9.59644 19.8862 9.59644C20.9569 9.59644 21.8748 10.4978 21.8748 11.6642C21.8748 12.8306 20.9569 13.7319 19.8862 13.7319Z" fill="white"/>
<path d="M10.9119 13.7319C12.0102 13.7319 12.9005 12.8062 12.9005 11.6642C12.9005 10.5222 12.0102 9.59644 10.9119 9.59644C9.81367 9.59644 8.92334 10.5222 8.92334 11.6642C8.92334 12.8062 9.81367 13.7319 10.9119 13.7319Z" fill="white"/>
<path d="M1.98873 13.7319C0.866949 13.7319 0.000122064 12.8306 0.000122066 11.6642C0.000122068 10.4978 0.866949 9.59644 1.98873 9.59644C3.05951 9.59644 3.97733 10.4978 3.97733 11.6642C3.97733 12.8306 3.05951 13.7319 1.98873 13.7319Z" fill="white"/>
<path d="M55.681 23.3813C54.6103 23.3813 53.6924 22.48 53.6924 21.3136C53.6924 20.2002 54.5593 19.2458 55.681 19.2458C56.8028 19.2458 57.6696 20.1472 57.6696 21.3136C57.6187 22.48 56.7518 23.3813 55.681 23.3813Z" fill="white"/>
<path d="M46.7068 23.3813C45.636 23.3813 44.7182 22.48 44.7182 21.3136C44.7182 20.2002 45.585 19.2458 46.7068 19.2458C47.7776 19.2458 48.6954 20.1472 48.6954 21.3136C48.6954 22.48 47.7776 23.3813 46.7068 23.3813Z" fill="white"/>
<path d="M37.7836 23.3813C36.7128 23.3813 35.795 22.48 35.795 21.3136C35.795 20.2002 36.6618 19.2458 37.7836 19.2458C38.8544 19.2458 39.7722 20.1472 39.7722 21.3136C39.7212 22.48 38.8544 23.3813 37.7836 23.3813Z" fill="white"/>
<path d="M28.8094 23.3813C27.7386 23.3813 26.8208 22.48 26.8208 21.3136C26.8208 20.2002 27.6876 19.2458 28.8094 19.2458C29.8802 19.2458 30.798 20.1472 30.798 21.3136C30.798 22.48 29.8802 23.3813 28.8094 23.3813Z" fill="white"/>
<path d="M19.8862 23.3813C18.8154 23.3813 17.8976 22.48 17.8976 21.3136C17.8976 20.2002 18.7644 19.2458 19.8862 19.2458C20.957 19.2458 21.8748 20.1472 21.8748 21.3136C21.8238 22.48 20.957 23.3813 19.8862 23.3813Z" fill="white"/>
<path d="M10.9119 23.3813C9.84116 23.3813 8.92334 22.48 8.92334 21.3136C8.92334 20.2002 9.79017 19.2458 10.9119 19.2458C12.0337 19.2458 12.9005 20.1472 12.9005 21.3136C12.9005 22.48 11.9827 23.3813 10.9119 23.3813Z" fill="white"/>
<path d="M1.98873 23.3813C0.917939 23.3813 0.000122064 22.48 0.000122066 21.3136C0.000122068 20.2002 0.86695 19.2458 1.98873 19.2458C3.05951 19.2458 3.97733 20.1472 3.97733 21.3136C3.92634 22.48 3.05951 23.3813 1.98873 23.3813Z" fill="white"/>
</g>
<g clip-path="url(#clip3_1_257)">
<path d="M55.681 28.3916C56.7518 28.3916 57.6696 29.2929 57.6696 30.4593C57.6696 31.6258 56.8028 32.5271 55.681 32.5271C54.5593 32.5271 53.6924 31.6258 53.6924 30.4593C53.6924 29.2929 54.5593 28.3916 55.681 28.3916Z" fill="white"/>
<path d="M46.7068 28.3916C47.7776 28.3916 48.6954 29.2929 48.6954 30.4593C48.6954 31.6258 47.8286 32.5271 46.7068 32.5271C45.636 32.5271 44.7182 31.6258 44.7182 30.4593C44.7182 29.2929 45.636 28.3916 46.7068 28.3916Z" fill="white"/>
<path d="M37.7836 28.3916C38.8544 28.3916 39.7722 29.2929 39.7722 30.4593C39.7722 31.6258 38.9054 32.5271 37.7836 32.5271C36.7128 32.5271 35.795 31.6258 35.795 30.4593C35.795 29.2929 36.6618 28.3916 37.7836 28.3916Z" fill="white"/>
<path d="M28.8094 28.3916C29.8802 28.3916 30.798 29.2929 30.798 30.4593C30.798 31.6258 29.9312 32.5271 28.8094 32.5271C27.7386 32.5271 26.8208 31.6258 26.8208 30.4593C26.8208 29.2929 27.7386 28.3916 28.8094 28.3916Z" fill="white"/>
<path d="M19.8862 28.3916C20.9569 28.3916 21.8748 29.2929 21.8748 30.4593C21.8748 31.6258 20.9569 32.4741 19.8862 32.4741C18.8154 32.4741 17.8976 31.5727 17.8976 30.4063C17.8976 29.2399 18.7644 28.3916 19.8862 28.3916Z" fill="white"/>
<path d="M10.9119 28.3916C11.9827 28.3916 12.9006 29.2929 12.9006 30.4593C12.9006 31.6258 12.0337 32.5271 10.9119 32.5271C9.79017 32.5271 8.97433 31.5727 8.97433 30.4593C8.97433 29.3459 9.84116 28.3916 10.9119 28.3916Z" fill="white"/>
<path d="M1.98873 28.3916C3.05951 28.3916 3.92634 29.2929 3.92634 30.4593C3.92634 31.6258 3.05951 32.4741 1.98873 32.4741C0.86695 32.4741 0.000122064 31.5727 0.000122066 30.4593C0.000122068 29.3459 0.86695 28.3916 1.98873 28.3916Z" fill="white"/>
<path d="M55.681 42.1235C56.7793 42.1235 57.6696 41.1978 57.6696 40.0558C57.6696 38.9138 56.7793 37.988 55.681 37.988C54.5828 37.988 53.6924 38.9138 53.6924 40.0558C53.6924 41.1978 54.5828 42.1235 55.681 42.1235Z" fill="white"/>
<path d="M46.7068 42.1235C47.8051 42.1235 48.6954 41.1978 48.6954 40.0558C48.6954 38.9138 47.8051 37.988 46.7068 37.988C45.6086 37.988 44.7182 38.9138 44.7182 40.0558C44.7182 41.1978 45.6086 42.1235 46.7068 42.1235Z" fill="white"/>
<path d="M37.7836 42.1235C36.7128 42.1235 35.795 41.2222 35.795 40.0558C35.795 38.8894 36.6618 37.988 37.7836 37.988C38.8544 37.988 39.7722 38.8894 39.7722 40.0558C39.7722 41.2222 38.8544 42.1235 37.7836 42.1235Z" fill="white"/>
<path d="M28.8094 42.1235C29.9077 42.1235 30.798 41.1978 30.798 40.0558C30.798 38.9138 29.9077 37.988 28.8094 37.988C27.7111 37.988 26.8208 38.9138 26.8208 40.0558C26.8208 41.1978 27.7111 42.1235 28.8094 42.1235Z" fill="white"/>
<path d="M19.8862 42.1235C18.8154 42.1235 17.8976 41.2222 17.8976 40.0558C17.8976 38.8894 18.7644 37.988 19.8862 37.988C20.9569 37.988 21.8748 38.8894 21.8748 40.0558C21.8748 41.2222 20.9569 42.1235 19.8862 42.1235Z" fill="white"/>
<path d="M10.9119 42.1235C12.0102 42.1235 12.9005 41.1978 12.9005 40.0558C12.9005 38.9138 12.0102 37.988 10.9119 37.988C9.81367 37.988 8.92334 38.9138 8.92334 40.0558C8.92334 41.1978 9.81367 42.1235 10.9119 42.1235Z" fill="white"/>
<path d="M1.98873 42.1235C0.866949 42.1235 0.000122064 41.2222 0.000122066 40.0558C0.000122068 38.8894 0.866949 37.988 1.98873 37.988C3.05951 37.988 3.97733 38.8894 3.97733 40.0558C3.97733 41.2222 3.05951 42.1235 1.98873 42.1235Z" fill="white"/>
</g>
<defs>
<clipPath id="clip0_1_257">
<rect width="57.6185" height="23.3814" fill="white" transform="translate(62.4108)"/>
</clipPath>
<clipPath id="clip1_1_257">
<rect width="57.6185" height="23.3814" fill="white" transform="translate(62.4108 28.3918)"/>
</clipPath>
<clipPath id="clip2_1_257">
<rect width="57.6185" height="23.3814" fill="white"/>
</clipPath>
<clipPath id="clip3_1_257">
<rect width="57.6185" height="23.3814" fill="white" transform="translate(0.00012207 28.3916)"/>
</clipPath>
</defs>
</svg>
