<svg width="36" height="34" viewBox="0 0 36 34" fill="none" xmlns="http://www.w3.org/2000/svg">
<g clip-path="url(#clip0_5_417)">
<path fill-rule="evenodd" clip-rule="evenodd" d="M35.4241 17C35.4241 26.3882 27.687 34 18.1441 34C8.60126 34 0.864136 26.3882 0.864136 17C0.864136 7.61175 8.60126 0 18.1441 0C27.687 0 35.4241 7.61175 35.4241 17ZM18.7633 12.5503C17.0829 13.2373 13.7233 14.6611 8.68622 16.8201C7.8683 17.1402 7.43918 17.4533 7.4003 17.7593C7.33406 18.2778 7.99358 18.4818 8.88926 18.7581C9.01166 18.7963 9.13838 18.8346 9.26798 18.8771C10.1507 19.159 11.3373 19.4891 11.9536 19.5018C12.5137 19.5132 13.1387 19.2865 13.8285 18.8218C18.5344 15.6952 20.9637 14.1157 21.1163 14.0817C21.2243 14.0576 21.3741 14.0264 21.4749 14.1157C21.5757 14.2035 21.5656 14.3707 21.5555 14.416C21.4893 14.6894 18.9059 17.0538 17.5667 18.2778C17.1491 18.6589 16.8539 18.9295 16.7934 18.9918C16.6581 19.1292 16.5198 19.261 16.3873 19.3871C15.5665 20.1634 14.9531 20.7471 16.4219 21.6991C17.1275 22.1567 17.692 22.5349 18.255 22.9117C18.8699 23.324 19.4833 23.7348 20.2782 24.2477C20.4798 24.378 20.6728 24.5126 20.8614 24.6443C21.5771 25.1472 22.2208 25.5977 23.0157 25.5269C23.4765 25.4844 23.9545 25.058 24.1965 23.7844C24.7681 20.7726 25.8942 14.2502 26.1549 11.5614C26.1707 11.3382 26.1611 11.1139 26.1261 10.8927C26.105 10.7142 26.0168 10.5498 25.8784 10.4323C25.6725 10.2666 25.3528 10.2312 25.2088 10.234C24.5593 10.2453 23.5629 10.5868 18.7633 12.5503Z" fill="#637AA9"/>
</g>
<defs>
<clipPath id="clip0_5_417">
<rect width="36" height="34" fill="white"/>
</clipPath>
</defs>
</svg>
